<svg width="24" height="19" viewBox="0 0 24 19" fill="none" xmlns="http://www.w3.org/2000/svg">
<path d="M18.4043 1.64453L11.9422 6.68773L5.33228 1.64453V1.64589L5.34026 1.65271V8.71453L11.8677 13.8667L18.4043 8.91345V1.64453Z" fill="#E9A1AD"/>
<path d="M20.1009 0.417045L18.4038 1.64376V8.91271L23.7439 4.81281V2.34298C23.7439 2.34298 23.0957 -1.1845 20.1009 0.417045Z" fill="#D64B4A"/>
<path d="M18.4038 8.9124V18.3404H22.4967C22.4967 18.3404 23.6614 18.2205 23.7452 16.8929V4.8125L18.4038 8.9124Z" fill="#EA7271"/>
<path d="M5.34056 18.3491V8.71383L5.33228 8.70703L5.34056 18.3491Z" fill="#EA7271"/>
<path d="M5.33213 1.64488L3.64438 0.424979C0.649541 -1.17657 0 2.34956 0 2.34956V4.81931L5.33213 8.70669V1.64488Z" fill="#EA7271"/>
<path d="M5.33228 1.64648V8.70832L5.34056 8.71512V1.65331L5.33228 1.64648Z" fill="#EA7271"/>
<path d="M0 4.82031V16.9007C0.0825269 18.2297 1.24851 18.3483 1.24851 18.3483H5.34144L5.33213 8.70629L0 4.82031Z" fill="#EA7271" fill-opacity="0.56"/>
</svg>
