<svg width="20" height="19" viewBox="0 0 20 19" fill="none" xmlns="http://www.w3.org/2000/svg">
<path d="M4.10156 18.8968H0V5.68862H4.10156V18.8968ZM19.4524 18.8968H15.3597V12.4671C15.3597 10.9348 15.3287 8.96969 13.2272 8.96969C11.0947 8.96969 10.7679 10.6345 10.7679 12.3567V18.8968H6.67077V5.68862H10.6045V7.49034H10.6619C11.2095 6.45258 12.5471 5.35742 14.5427 5.35742C18.6937 5.35742 19.4568 8.09091 19.4568 11.6414V18.8968H19.4524Z" fill="#EA7271"/>
<path d="M4.28644 2.14322C4.28644 3.33002 3.32304 4.28644 2.14322 4.28644C0.956422 4.28644 0 3.32304 0 2.14322C0 0.956421 0.963403 0 2.14322 0C3.32304 0 4.28644 0.963402 4.28644 2.14322Z" fill="#D64B4A"/>
</svg>
