<svg width="27" height="30" viewBox="0 0 27 30" fill="none" xmlns="http://www.w3.org/2000/svg">
<path fill-rule="evenodd" clip-rule="evenodd" d="M17.7302 1.95117C20.2744 2.66514 22.9381 3.02531 25.5221 3.35526C26.0786 3.42443 26.5954 3.03843 26.6351 2.4946C26.7146 1.95037 26.3169 1.45266 25.8001 1.38349C23.2956 1.06586 20.7118 0.725968 18.2869 0.0386288C17.7701 -0.110447 17.2133 0.196447 17.0543 0.724374C16.8953 1.2519 17.2134 1.80169 17.7302 1.95117Z" fill="#E3B5D1"/>
<path fill-rule="evenodd" clip-rule="evenodd" d="M10.0183 12.0751C14.1129 16.2536 18.7243 19.8942 22.7394 24.1848C23.0972 24.5855 23.7332 24.607 24.1308 24.2329C24.5283 23.8584 24.5679 23.2287 24.1704 22.828C20.1553 18.5251 15.5439 14.8725 11.4492 10.6817C11.0517 10.2906 10.4158 10.285 10.0183 10.6698C9.66048 11.0542 9.62073 11.6839 10.0183 12.0751Z" fill="#E3B5D1"/>
<path fill-rule="evenodd" clip-rule="evenodd" d="M2.34514 28.1456C2.22588 25.754 2.10685 23.3624 1.98759 20.9704C1.98759 20.4226 1.51032 19.9997 0.953768 20.0263C0.397218 20.0533 -8.46386e-05 20.5196 -8.46386e-05 21.0678C0.119176 23.4634 0.238204 25.8585 0.357464 28.2537C0.397218 28.8015 0.874338 29.2217 1.43089 29.1919C1.94768 29.1621 2.3849 28.693 2.34514 28.1456Z" fill="#E3B5D1"/>
</svg>
