<svg width="24" height="24" viewBox="0 0 24 24" fill="none" xmlns="http://www.w3.org/2000/svg">
<g clip-path="url(#clip0_3099_14780)">
<path fill-rule="evenodd" clip-rule="evenodd" d="M9.32666 4.63997C9.26359 4.26576 9.21608 3.89578 9.18539 3.52577C9.13913 2.97075 9.16773 2.41148 9.15133 1.85646C9.14418 1.621 9.11601 1.00712 9.12736 0.918824C9.23038 0.149363 9.85141 0.0316173 10.033 0.0105938C10.1209 -0.00202029 11.0233 -0.102888 11.2179 0.897831C11.4568 2.1214 11.5333 3.35336 11.4488 4.56011C11.646 5.58606 11.9832 6.60778 12.4285 7.53281C14.2003 11.2119 17.5767 11.5693 21.2348 11.5357C21.7974 11.5273 22.2645 11.9688 22.294 12.528C22.3234 13.0914 21.9046 13.5792 21.3446 13.6296C19.2998 13.8273 15.672 15.4671 14.4177 17.1742C14.1553 17.5316 14.0027 18.3936 13.8009 19.2387C13.5192 20.4119 13.1841 21.5723 12.8086 22.0601C12.7522 22.1358 12.0673 22.9094 11.8629 23.023C11.3718 23.2921 10.9787 23.1365 10.7554 22.9935C10.5322 22.8505 10.2794 22.5688 10.1785 22.1021C10.073 21.6144 10.1621 20.6136 10.1457 20.3992C10.086 19.6213 9.93047 18.095 9.61302 16.7832C9.44188 16.0768 9.25939 15.425 8.95749 15.1013C7.83988 13.9029 6.05289 14.0795 4.54802 14.2772C4.37521 14.2982 4.2024 14.3234 4.03001 14.3445C3.41738 14.5253 2.7669 14.6598 2.07943 14.7397C1.04129 14.8616 0.870587 13.9071 0.861337 13.8441C0.841995 13.7053 0.770088 12.9905 1.55258 12.7046C1.63794 12.6752 2.26781 12.5364 2.51042 12.4818C2.84848 12.4061 3.19031 12.3472 3.53342 12.2926C7.07756 11.1909 9.00248 8.09624 9.32666 4.63997ZM10.5431 8.46209C11.881 11.2288 13.9115 12.5659 16.3182 13.1713H16.3178C14.8151 13.9576 13.4481 14.9415 12.7236 15.9296C12.4486 16.3039 12.1964 17.0565 11.9689 17.9016C11.8457 17.1153 11.6792 16.2786 11.4593 15.5638C11.2091 14.7481 10.8723 14.0712 10.4964 13.6675C9.77067 12.8896 8.85993 12.4565 7.88065 12.2421C9.05293 11.2035 9.94181 9.9085 10.5431 8.46209Z" fill="#C2AFBB"/>
</g>
<defs>
<clipPath id="clip0_3099_14780">
<rect width="23.5463" height="23.5463" fill="white"/>
</clipPath>
</defs>
</svg>
