<svg width="18" height="18" viewBox="0 0 18 18" fill="none" xmlns="http://www.w3.org/2000/svg">
<g clip-path="url(#clip0_3099_14784)">
<path fill-rule="evenodd" clip-rule="evenodd" d="M2.27048 7.88528C3.06588 7.60186 3.9029 7.22517 4.54836 6.67982C5.31496 6.03207 5.62673 5.19783 5.83609 4.31969C6.10488 3.19151 6.21228 1.98971 6.53822 0.859689C6.6589 0.440047 6.89114 0.281421 6.99079 0.211023C7.24267 0.0332011 7.49727 -0.0143307 7.73681 0.00349721C8.02068 0.0240679 8.41063 0.131485 8.66707 0.607354C8.70364 0.675466 8.75117 0.779239 8.78317 0.921405C8.80648 1.02563 8.82157 1.35155 8.84625 1.48595C8.90796 1.81691 8.95962 2.14788 9.00808 2.48067C9.16944 3.58829 9.26225 4.52904 9.77194 5.5466C10.4636 6.92804 11.1566 7.77327 12.0964 8.14766C13.0052 8.5097 14.0918 8.4416 15.4801 8.15773C15.6122 8.12573 15.7429 8.09829 15.8723 8.07589C16.4844 7.96893 17.0695 8.37074 17.1897 8.98055C17.31 9.5899 16.921 10.1837 16.3143 10.3176C16.1877 10.3455 16.0629 10.372 15.9395 10.3963C14.0635 10.8607 11.8916 12.5183 10.6295 13.9696C10.2405 14.4172 9.67092 15.6683 9.08991 16.4664C8.66113 17.0552 8.17931 17.4433 7.77475 17.5805C7.50367 17.6728 7.27512 17.6587 7.08633 17.612C6.81205 17.5444 6.58441 17.3958 6.40979 17.1594C6.31471 17.0301 6.22646 16.8568 6.18441 16.6356C6.16429 16.5291 6.16202 16.2585 6.16248 16.136C6.04408 15.7287 5.89917 15.3309 5.79357 14.92C5.54169 13.9395 5.04753 13.3187 4.46058 12.4986C3.91157 11.7311 3.3219 11.2488 2.45747 10.8639C2.34502 10.8365 1.43762 10.6143 1.11718 10.4868C0.649078 10.2998 0.425988 9.98667 0.345077 9.81799C0.207481 9.53183 0.193323 9.2818 0.220751 9.07335C0.261435 8.7657 0.399488 8.5024 0.644508 8.28984C0.796274 8.15773 1.02301 8.02926 1.32654 7.96664C1.56105 7.91772 2.18317 7.88939 2.27048 7.88528ZM7.59373 6.28715C7.63579 6.38086 7.68059 6.47503 7.72813 6.57012C8.74112 8.59336 9.87388 9.72292 11.2507 10.271L11.2969 10.2888C10.3758 10.9727 9.542 11.737 8.90476 12.4698C8.64237 12.7715 8.29497 13.3982 7.91967 14.0409C7.57865 12.9324 7.02096 12.1489 6.31972 11.1684C5.78397 10.42 5.22262 9.85687 4.53282 9.39792C5.06811 9.12319 5.57872 8.80136 6.0235 8.4256C6.76405 7.7998 7.25363 7.07478 7.59373 6.28715Z" fill="#C2AFBB"/>
</g>
<defs>
<clipPath id="clip0_3099_14784">
<rect width="17.8279" height="17.8279" fill="white"/>
</clipPath>
</defs>
</svg>
