<svg width="25" height="25" viewBox="0 0 25 25" fill="none" xmlns="http://www.w3.org/2000/svg">
<g clip-path="url(#clip0_3099_13996)">
<path d="M12.1147 2.18159C15.3516 2.18159 15.7349 2.19579 17.0079 2.25258C18.191 2.30463 18.8298 2.50339 19.2557 2.66902C19.8189 2.8867 20.2259 3.15171 20.647 3.57289C21.0729 3.9988 21.3332 4.40104 21.5509 4.96419C21.7165 5.39009 21.9153 6.03369 21.9674 7.21203C22.0241 8.48975 22.0383 8.87307 22.0383 12.1052C22.0383 15.3421 22.0241 15.7254 21.9674 16.9984C21.9153 18.1815 21.7165 18.8204 21.5509 19.2463C21.3332 19.8094 21.0682 20.2164 20.647 20.6376C20.2211 21.0635 19.8189 21.3238 19.2557 21.5414C18.8298 21.7071 18.1862 21.9058 17.0079 21.9579C15.7302 22.0147 15.3469 22.0289 12.1147 22.0289C8.8778 22.0289 8.49448 22.0147 7.2215 21.9579C6.03842 21.9058 5.39956 21.7071 4.97365 21.5414C4.41051 21.3238 4.00353 21.0587 3.58235 20.6376C3.15645 20.2117 2.89617 19.8094 2.67848 19.2463C2.51285 18.8204 2.3141 18.1768 2.26204 16.9984C2.20525 15.7207 2.19106 15.3374 2.19106 12.1052C2.19106 8.86834 2.20525 8.48502 2.26204 7.21203C2.3141 6.02895 2.51285 5.39009 2.67848 4.96419C2.89617 4.40104 3.16118 3.99406 3.58235 3.57289C4.00826 3.14698 4.41051 2.8867 4.97365 2.66902C5.39956 2.50339 6.04315 2.30463 7.2215 2.25258C8.49448 2.19579 8.8778 2.18159 12.1147 2.18159ZM12.1147 0C8.82575 0 8.41403 0.0141969 7.12212 0.0709845C5.83493 0.127772 4.94999 0.335993 4.18336 0.634129C3.3836 0.946461 2.70688 1.35817 2.03489 2.03489C1.35817 2.70688 0.946461 3.3836 0.634129 4.17862C0.335993 4.94999 0.127772 5.8302 0.0709845 7.11738C0.0141969 8.41403 0 8.82574 0 12.1147C0 15.4036 0.0141969 15.8154 0.0709845 17.1073C0.127772 18.3945 0.335993 19.2794 0.634129 20.046C0.946461 20.8458 1.35817 21.5225 2.03489 22.1945C2.70688 22.8665 3.3836 23.2829 4.17862 23.5905C4.94999 23.8887 5.8302 24.0969 7.11738 24.1537C8.4093 24.2105 8.82101 24.2247 12.11 24.2247C15.3989 24.2247 15.8106 24.2105 17.1025 24.1537C18.3897 24.0969 19.2747 23.8887 20.0413 23.5905C20.8363 23.2829 21.5131 22.8665 22.185 22.1945C22.857 21.5225 23.2735 20.8458 23.5811 20.0508C23.8792 19.2794 24.0874 18.3992 24.1442 17.112C24.201 15.8201 24.2152 15.4084 24.2152 12.1194C24.2152 8.83048 24.201 8.41877 24.1442 7.12685C24.0874 5.83966 23.8792 4.95472 23.5811 4.18809C23.2829 3.3836 22.8712 2.70688 22.1945 2.03489C21.5225 1.3629 20.8458 0.946461 20.0508 0.638861C19.2794 0.340726 18.3992 0.132504 17.112 0.0757169C15.8154 0.0141969 15.4036 0 12.1147 0Z" fill="#EA7271"/>
<path d="M12.1143 5.89258C8.67868 5.89258 5.89136 8.6799 5.89136 12.1156C5.89136 15.5512 8.67868 18.3385 12.1143 18.3385C15.55 18.3385 18.3373 15.5512 18.3373 12.1156C18.3373 8.6799 15.55 5.89258 12.1143 5.89258ZM12.1143 16.1522C9.88542 16.1522 8.07768 14.3445 8.07768 12.1156C8.07768 9.88664 9.88542 8.0789 12.1143 8.0789C14.3433 8.0789 16.151 9.88664 16.151 12.1156C16.151 14.3445 14.3433 16.1522 12.1143 16.1522Z" fill="#F3B0AF"/>
<path d="M20.0365 5.64618C20.0365 6.45067 19.3834 7.099 18.5837 7.099C17.7792 7.099 17.1309 6.44594 17.1309 5.64618C17.1309 4.84169 17.7839 4.19336 18.5837 4.19336C19.3834 4.19336 20.0365 4.84642 20.0365 5.64618Z" fill="#D64B4A"/>
</g>
<defs>
<clipPath id="clip0_3099_13996">
<rect width="24.2294" height="24.2294" fill="white"/>
</clipPath>
</defs>
</svg>
