<svg width="914" height="585" viewBox="0 0 914 585" fill="none" xmlns="http://www.w3.org/2000/svg">
<g opacity="0.6">
<path d="M291.908 395.286C291.908 395.042 291.6 394.843 291.22 394.843C290.841 394.843 290.533 395.042 290.533 395.286C290.533 395.531 290.841 395.729 291.22 395.729C291.6 395.729 291.908 395.531 291.908 395.286Z" fill="white"/>
<path d="M298.002 284.978C298.002 284.733 297.694 284.535 297.315 284.535C296.935 284.535 296.627 284.733 296.627 284.978C296.627 285.222 296.935 285.421 297.315 285.421C297.694 285.421 298.002 285.222 298.002 284.978Z" fill="white"/>
<path d="M60.4215 454.71C60.4215 454.466 60.1138 454.267 59.7342 454.267C59.3546 454.267 59.0469 454.466 59.0469 454.71C59.0469 454.955 59.3546 455.153 59.7342 455.153C60.1138 455.153 60.4215 454.955 60.4215 454.71Z" fill="white"/>
<path d="M14.5824 67.2903C14.5824 67.0456 14.2747 66.8473 13.8951 66.8473C13.5155 66.8473 13.2078 67.0456 13.2078 67.2903C13.2078 67.5349 13.5155 67.7332 13.8951 67.7332C14.2747 67.7332 14.5824 67.5349 14.5824 67.2903Z" fill="white"/>
<path d="M304.422 205.239C304.422 204.995 304.114 204.797 303.735 204.797C303.355 204.797 303.047 204.995 303.047 205.239C303.047 205.484 303.355 205.682 303.735 205.682C304.114 205.682 304.422 205.484 304.422 205.239Z" fill="white"/>
<path d="M382.184 442.023C382.184 441.778 381.876 441.58 381.496 441.58C381.117 441.58 380.809 441.778 380.809 442.023C380.809 442.267 381.117 442.466 381.496 442.466C381.876 442.466 382.184 442.267 382.184 442.023Z" fill="white"/>
<path d="M357.458 418.681C357.458 418.436 357.15 418.238 356.771 418.238C356.391 418.238 356.083 418.436 356.083 418.681C356.083 418.926 356.391 419.124 356.771 419.124C357.15 419.124 357.458 418.926 357.458 418.681Z" fill="white"/>
<path d="M301.093 514.845C301.093 514.6 300.785 514.402 300.405 514.402C300.026 514.402 299.718 514.6 299.718 514.845C299.718 515.09 300.026 515.288 300.405 515.288C300.785 515.288 301.093 515.09 301.093 514.845Z" fill="white"/>
<path d="M335.678 297.335C335.678 297.091 335.37 296.892 334.991 296.892C334.611 296.892 334.303 297.091 334.303 297.335C334.303 297.58 334.611 297.778 334.991 297.778C335.37 297.778 335.678 297.58 335.678 297.335Z" fill="white"/>
<path d="M362.447 458.007C362.447 457.762 362.139 457.564 361.76 457.564C361.38 457.564 361.073 457.762 361.073 458.007C361.073 458.252 361.38 458.45 361.76 458.45C362.139 458.45 362.447 458.252 362.447 458.007Z" fill="white"/>
<path d="M319.551 252.068C319.551 251.579 318.936 251.182 318.176 251.182C317.417 251.182 316.802 251.579 316.802 252.068C316.802 252.557 317.417 252.954 318.176 252.954C318.936 252.954 319.551 252.557 319.551 252.068Z" fill="white"/>
<path d="M405.014 127.259C405.014 126.77 404.399 126.374 403.64 126.374C402.88 126.374 402.265 126.77 402.265 127.259C402.265 127.749 402.88 128.145 403.64 128.145C404.399 128.145 405.014 127.749 405.014 127.259Z" fill="white"/>
<path d="M57.3887 0.966325C57.3887 0.735861 57.0988 0.549031 56.7412 0.549031C56.3836 0.549031 56.0938 0.735861 56.0938 0.966325C56.0938 1.19679 56.3836 1.38361 56.7412 1.38361C57.0988 1.38361 57.3887 1.19679 57.3887 0.966325Z" fill="white"/>
<path d="M146.496 294.147C146.496 293.846 146.117 293.602 145.65 293.602C145.183 293.602 144.804 293.846 144.804 294.147C144.804 294.448 145.183 294.692 145.65 294.692C146.117 294.692 146.496 294.448 146.496 294.147Z" fill="white"/>
<path d="M9.00206 141.115C9.00206 140.852 8.6704 140.638 8.26128 140.638C7.85217 140.638 7.52051 140.852 7.52051 141.115C7.52051 141.379 7.85217 141.593 8.26128 141.593C8.6704 141.593 9.00206 141.379 9.00206 141.115Z" fill="white"/>
<path d="M404.495 165.162C404.495 164.908 404.175 164.702 403.781 164.702C403.387 164.702 403.068 164.908 403.068 165.162C403.068 165.416 403.387 165.622 403.781 165.622C404.175 165.622 404.495 165.416 404.495 165.162Z" fill="white"/>
<path d="M48.7307 580.334C48.7307 580.2 48.5618 580.091 48.3536 580.091C48.1454 580.091 47.9766 580.2 47.9766 580.334C47.9766 580.468 48.1454 580.577 48.3536 580.577C48.5618 580.577 48.7307 580.468 48.7307 580.334Z" fill="white"/>
<path d="M350.642 198.688C350.642 198.335 350.199 198.05 349.653 198.05C349.107 198.05 348.664 198.335 348.664 198.688C348.664 199.04 349.107 199.325 349.653 199.325C350.199 199.325 350.642 199.04 350.642 198.688Z" fill="white"/>
<path d="M39.8003 449.431C39.8003 449.239 39.558 449.083 39.2592 449.083C38.9603 449.083 38.718 449.239 38.718 449.431C38.718 449.624 38.9603 449.78 39.2592 449.78C39.558 449.78 39.8003 449.624 39.8003 449.431Z" fill="white"/>
<path d="M339.279 102.73C339.279 102.413 338.881 102.157 338.389 102.157C337.898 102.157 337.5 102.413 337.5 102.73C337.5 103.047 337.898 103.304 338.389 103.304C338.881 103.304 339.279 103.047 339.279 102.73Z" fill="white"/>
<path d="M47.4173 80.4779C47.4173 80.2819 47.1707 80.123 46.8666 80.123C46.5625 80.123 46.3159 80.2819 46.3159 80.4779C46.3159 80.6739 46.5625 80.8328 46.8666 80.8328C47.1707 80.8328 47.4173 80.6739 47.4173 80.4779Z" fill="white"/>
<path d="M194.894 460.716C194.894 460.356 194.442 460.064 193.883 460.064C193.324 460.064 192.872 460.356 192.872 460.716C192.872 461.076 193.324 461.368 193.883 461.368C194.442 461.368 194.894 461.076 194.894 460.716Z" fill="white"/>
<path d="M376.221 237.225C376.221 236.958 375.885 236.742 375.471 236.742C375.057 236.742 374.722 236.958 374.722 237.225C374.722 237.492 375.057 237.708 375.471 237.708C375.885 237.708 376.221 237.492 376.221 237.225Z" fill="white"/>
<path d="M400.869 117.809C400.869 117.496 400.475 117.242 399.989 117.242C399.503 117.242 399.109 117.496 399.109 117.809C399.109 118.122 399.503 118.376 399.989 118.376C400.475 118.376 400.869 118.122 400.869 117.809Z" fill="white"/>
<path d="M316.889 37.9849C316.889 37.6288 316.441 37.3401 315.889 37.3401C315.336 37.3401 314.888 37.6288 314.888 37.9849C314.888 38.341 315.336 38.6297 315.889 38.6297C316.441 38.6297 316.889 38.341 316.889 37.9849Z" fill="white"/>
<path d="M407.238 405.539C407.238 405.334 406.98 405.167 406.662 405.167C406.343 405.167 406.085 405.334 406.085 405.539C406.085 405.744 406.343 405.911 406.662 405.911C406.98 405.911 407.238 405.744 407.238 405.539Z" fill="white"/>
<path d="M328.545 379.741C328.545 379.491 328.23 379.288 327.842 379.288C327.454 379.288 327.139 379.491 327.139 379.741C327.139 379.991 327.454 380.194 327.842 380.194C328.23 380.194 328.545 379.991 328.545 379.741Z" fill="white"/>
<path d="M46.9887 76.1782C46.9887 76.013 46.7808 75.8791 46.5245 75.8791C46.2681 75.8791 46.0603 76.013 46.0603 76.1782C46.0603 76.3434 46.2681 76.4774 46.5245 76.4774C46.7808 76.4774 46.9887 76.3434 46.9887 76.1782Z" fill="white"/>
<path d="M348.707 380.551C348.707 380.198 348.264 379.913 347.717 379.913C347.171 379.913 346.728 380.198 346.728 380.551C346.728 380.903 347.171 381.188 347.717 381.188C348.264 381.188 348.707 380.903 348.707 380.551Z" fill="white"/>
<path d="M254.316 10.8359C254.316 10.6996 254.144 10.589 253.933 10.589C253.721 10.589 253.55 10.6996 253.55 10.8359C253.55 10.9723 253.721 11.0828 253.933 11.0828C254.144 11.0828 254.316 10.9723 254.316 10.8359Z" fill="white"/>
<path d="M339.775 546.606C339.775 546.266 339.347 545.99 338.82 545.99C338.292 545.99 337.864 546.266 337.864 546.606C337.864 546.946 338.292 547.221 338.82 547.221C339.347 547.221 339.775 546.946 339.775 546.606Z" fill="white"/>
<path d="M403.421 22.1291C403.421 21.7652 402.963 21.4703 402.399 21.4703C401.834 21.4703 401.377 21.7652 401.377 22.1291C401.377 22.4929 401.834 22.7879 402.399 22.7879C402.963 22.7879 403.421 22.4929 403.421 22.1291Z" fill="white"/>
<path d="M308.202 256.948C308.202 256.809 308.027 256.697 307.811 256.697C307.596 256.697 307.421 256.809 307.421 256.948C307.421 257.087 307.596 257.2 307.811 257.2C308.027 257.2 308.202 257.087 308.202 256.948Z" fill="white"/>
<path d="M130.005 85.1423C130.005 84.9853 129.808 84.858 129.564 84.858C129.32 84.858 129.123 84.9853 129.123 85.1423C129.123 85.2993 129.32 85.4266 129.564 85.4266C129.808 85.4266 130.005 85.2993 130.005 85.1423Z" fill="white"/>
<path d="M92.8867 482.442C92.8867 482.095 92.4508 481.814 91.913 481.814C91.3752 481.814 90.9392 482.095 90.9392 482.442C90.9392 482.788 91.3752 483.069 91.913 483.069C92.4508 483.069 92.8867 482.788 92.8867 482.442Z" fill="white"/>
<path d="M347.166 476.924C347.166 476.584 346.739 476.308 346.211 476.308C345.683 476.308 345.255 476.584 345.255 476.924C345.255 477.264 345.683 477.54 346.211 477.54C346.739 477.54 347.166 477.264 347.166 476.924Z" fill="white"/>
<path d="M266.303 244.389C266.303 244.256 266.135 244.148 265.929 244.148C265.723 244.148 265.555 244.256 265.555 244.389C265.555 244.522 265.723 244.63 265.929 244.63C266.135 244.63 266.303 244.522 266.303 244.389Z" fill="white"/>
<path d="M99.3409 14.9409C99.3409 14.7439 99.0931 14.5842 98.7874 14.5842C98.4817 14.5842 98.2339 14.7439 98.2339 14.9409C98.2339 15.138 98.4817 15.2977 98.7874 15.2977C99.0931 15.2977 99.3409 15.138 99.3409 14.9409Z" fill="white"/>
<path d="M82.6821 80.4792C82.6821 80.1307 82.2437 79.8482 81.703 79.8482C81.1622 79.8482 80.7239 80.1307 80.7239 80.4792C80.7239 80.8277 81.1622 81.1102 81.703 81.1102C82.2437 81.1102 82.6821 80.8277 82.6821 80.4792Z" fill="white"/>
<path d="M45.636 226.887C45.636 226.576 45.2448 226.324 44.7622 226.324C44.2796 226.324 43.8884 226.576 43.8884 226.887C43.8884 227.198 44.2796 227.45 44.7622 227.45C45.2448 227.45 45.636 227.198 45.636 226.887Z" fill="white"/>
<path d="M132.755 47.4635C132.755 47.1419 132.351 46.8812 131.852 46.8812C131.353 46.8812 130.948 47.1419 130.948 47.4635C130.948 47.785 131.353 48.0457 131.852 48.0457C132.351 48.0457 132.755 47.785 132.755 47.4635Z" fill="white"/>
<path d="M211.646 309.884C211.646 309.645 211.346 309.452 210.976 309.452C210.606 309.452 210.306 309.645 210.306 309.884C210.306 310.122 210.606 310.315 210.976 310.315C211.346 310.315 211.646 310.122 211.646 309.884Z" fill="white"/>
<path d="M313.824 484.432C313.824 484.109 313.417 483.847 312.915 483.847C312.413 483.847 312.006 484.109 312.006 484.432C312.006 484.756 312.413 485.018 312.915 485.018C313.417 485.018 313.824 484.756 313.824 484.432Z" fill="white"/>
<path d="M216.434 116.477C216.434 116.188 216.071 115.954 215.623 115.954C215.176 115.954 214.813 116.188 214.813 116.477C214.813 116.765 215.176 116.999 215.623 116.999C216.071 116.999 216.434 116.765 216.434 116.477Z" fill="white"/>
<path d="M43.6381 538.702C43.6381 538.373 43.2241 538.106 42.7134 538.106C42.2028 538.106 41.7888 538.373 41.7888 538.702C41.7888 539.031 42.2028 539.298 42.7134 539.298C43.2241 539.298 43.6381 539.031 43.6381 538.702Z" fill="white"/>
<path d="M120.535 178.297C120.535 178.156 120.357 178.041 120.138 178.041C119.918 178.041 119.74 178.156 119.74 178.297C119.74 178.439 119.918 178.554 120.138 178.554C120.357 178.554 120.535 178.439 120.535 178.297Z" fill="white"/>
<path d="M211.429 354.559C211.429 354.324 211.133 354.133 210.768 354.133C210.402 354.133 210.106 354.324 210.106 354.559C210.106 354.794 210.402 354.985 210.768 354.985C211.133 354.985 211.429 354.794 211.429 354.559Z" fill="white"/>
<path d="M86.0565 90.9243C86.0565 90.6965 85.77 90.5118 85.4166 90.5118C85.0631 90.5118 84.7766 90.6965 84.7766 90.9243C84.7766 91.1521 85.0631 91.3367 85.4166 91.3367C85.77 91.3367 86.0565 91.1521 86.0565 90.9243Z" fill="white"/>
<path d="M188.879 62.3656C188.879 62.0202 188.444 61.7402 187.908 61.7402C187.372 61.7402 186.938 62.0202 186.938 62.3656C186.938 62.711 187.372 62.991 187.908 62.991C188.444 62.991 188.879 62.711 188.879 62.3656Z" fill="white"/>
<path d="M57.3581 558.982C57.3581 558.663 56.956 558.404 56.4599 558.404C55.9639 558.404 55.5618 558.663 55.5618 558.982C55.5618 559.302 55.9639 559.561 56.4599 559.561C56.956 559.561 57.3581 559.302 57.3581 558.982Z" fill="white"/>
<path d="M383.672 310.569C383.672 310.434 383.502 310.324 383.291 310.324C383.08 310.324 382.909 310.434 382.909 310.569C382.909 310.705 383.08 310.815 383.291 310.815C383.502 310.815 383.672 310.705 383.672 310.569Z" fill="white"/>
<path d="M274.75 498.131C274.75 497.792 274.323 497.518 273.797 497.518C273.272 497.518 272.845 497.792 272.845 498.131C272.845 498.47 273.272 498.745 273.797 498.745C274.323 498.745 274.75 498.47 274.75 498.131Z" fill="white"/>
<path d="M184.031 302.543C184.031 302.213 183.616 301.946 183.105 301.946C182.593 301.946 182.179 302.213 182.179 302.543C182.179 302.872 182.593 303.139 183.105 303.139C183.616 303.139 184.031 302.872 184.031 302.543Z" fill="white"/>
<path d="M338.227 30.1257C338.227 29.9854 338.051 29.8717 337.833 29.8717C337.616 29.8717 337.439 29.9854 337.439 30.1257C337.439 30.266 337.616 30.3797 337.833 30.3797C338.051 30.3797 338.227 30.266 338.227 30.1257Z" fill="white"/>
<path d="M408.001 533.355C408.001 533.031 407.593 532.768 407.09 532.768C406.587 532.768 406.18 533.031 406.18 533.355C406.18 533.679 406.587 533.942 407.09 533.942C407.593 533.942 408.001 533.679 408.001 533.355Z" fill="white"/>
<path d="M240.315 567.185C240.315 566.842 239.884 566.565 239.352 566.565C238.82 566.565 238.389 566.842 238.389 567.185C238.389 567.528 238.82 567.805 239.352 567.805C239.884 567.805 240.315 567.528 240.315 567.185Z" fill="white"/>
<path d="M70.0237 12.4026C70.0237 12.0592 69.5919 11.7809 69.0591 11.7809C68.5264 11.7809 68.0945 12.0592 68.0945 12.4026C68.0945 12.7459 68.5264 13.0242 69.0591 13.0242C69.5919 13.0242 70.0237 12.7459 70.0237 12.4026Z" fill="white"/>
<path d="M231.419 340.913C231.419 340.675 231.12 340.482 230.751 340.482C230.381 340.482 230.082 340.675 230.082 340.913C230.082 341.152 230.381 341.345 230.751 341.345C231.12 341.345 231.419 341.152 231.419 340.913Z" fill="white"/>
<path d="M34.4571 487.324C34.4571 487.102 34.178 486.922 33.8337 486.922C33.4895 486.922 33.2104 487.102 33.2104 487.324C33.2104 487.546 33.4895 487.725 33.8337 487.725C34.178 487.725 34.4571 487.546 34.4571 487.324Z" fill="white"/>
<path d="M99.2608 261.273C99.2608 261.006 98.9258 260.79 98.5126 260.79C98.0994 260.79 97.7644 261.006 97.7644 261.273C97.7644 261.539 98.0994 261.755 98.5126 261.755C98.9258 261.755 99.2608 261.539 99.2608 261.273Z" fill="white"/>
<path d="M130.295 144.155C130.295 143.909 129.986 143.71 129.604 143.71C129.222 143.71 128.913 143.909 128.913 144.155C128.913 144.401 129.222 144.6 129.604 144.6C129.986 144.6 130.295 144.401 130.295 144.155Z" fill="white"/>
<path d="M160.011 499.458C160.011 499.163 159.641 498.924 159.184 498.924C158.727 498.924 158.356 499.163 158.356 499.458C158.356 499.752 158.727 499.991 159.184 499.991C159.641 499.991 160.011 499.752 160.011 499.458Z" fill="white"/>
<path d="M388.434 71.8877C388.434 71.5771 388.044 71.3254 387.562 71.3254C387.08 71.3254 386.689 71.5771 386.689 71.8877C386.689 72.1983 387.08 72.45 387.562 72.45C388.044 72.45 388.434 72.1983 388.434 71.8877Z" fill="white"/>
<path d="M261.143 320.044C261.143 319.818 260.86 319.636 260.51 319.636C260.16 319.636 259.877 319.818 259.877 320.044C259.877 320.269 260.16 320.452 260.51 320.452C260.86 320.452 261.143 320.269 261.143 320.044Z" fill="white"/>
<path d="M21.8885 214.697C21.8885 214.432 21.5543 214.216 21.142 214.216C20.7297 214.216 20.3955 214.432 20.3955 214.697C20.3955 214.963 20.7297 215.179 21.142 215.179C21.5543 215.179 21.8885 214.963 21.8885 214.697Z" fill="white"/>
<path d="M155.824 79.4663C155.824 79.2186 155.512 79.0178 155.128 79.0178C154.743 79.0178 154.432 79.2186 154.432 79.4663C154.432 79.714 154.743 79.9149 155.128 79.9149C155.512 79.9149 155.824 79.714 155.824 79.4663Z" fill="white"/>
<path d="M176.093 270.837C176.093 270.613 175.811 270.432 175.464 270.432C175.116 270.432 174.834 270.613 174.834 270.837C174.834 271.061 175.116 271.243 175.464 271.243C175.811 271.243 176.093 271.061 176.093 270.837Z" fill="white"/>
<path d="M353.424 27.2692C353.424 26.9622 353.038 26.7133 352.561 26.7133C352.085 26.7133 351.699 26.9622 351.699 27.2692C351.699 27.5762 352.085 27.825 352.561 27.825C353.038 27.825 353.424 27.5762 353.424 27.2692Z" fill="white"/>
<path d="M91.8665 433.838C91.8665 433.695 91.6867 433.579 91.4648 433.579C91.2429 433.579 91.063 433.695 91.063 433.838C91.063 433.981 91.2429 434.096 91.4648 434.096C91.6867 434.096 91.8665 433.981 91.8665 433.838Z" fill="white"/>
<path d="M292.59 319.999C292.59 319.781 292.316 319.605 291.978 319.605C291.64 319.605 291.366 319.781 291.366 319.999C291.366 320.217 291.64 320.393 291.978 320.393C292.316 320.393 292.59 320.217 292.59 319.999Z" fill="white"/>
<path d="M148.086 126.792C148.086 126.569 147.806 126.389 147.46 126.389C147.114 126.389 146.833 126.569 146.833 126.792C146.833 127.015 147.114 127.196 147.46 127.196C147.806 127.196 148.086 127.015 148.086 126.792Z" fill="white"/>
<path d="M352.756 296.872C352.756 296.568 352.373 296.321 351.901 296.321C351.429 296.321 351.046 296.568 351.046 296.872C351.046 297.176 351.429 297.423 351.901 297.423C352.373 297.423 352.756 297.176 352.756 296.872Z" fill="white"/>
<path d="M93.2952 204.3C93.2952 204.07 93.0064 203.884 92.6502 203.884C92.2939 203.884 92.0051 204.07 92.0051 204.3C92.0051 204.53 92.2939 204.716 92.6502 204.716C93.0064 204.716 93.2952 204.53 93.2952 204.3Z" fill="white"/>
<path d="M198.62 380.725C198.62 380.407 198.22 380.15 197.728 380.15C197.235 380.15 196.835 380.407 196.835 380.725C196.835 381.042 197.235 381.3 197.728 381.3C198.22 381.3 198.62 381.042 198.62 380.725Z" fill="white"/>
<path d="M122.365 548.952C122.365 548.793 122.165 548.664 121.918 548.664C121.672 548.664 121.472 548.793 121.472 548.952C121.472 549.11 121.672 549.239 121.918 549.239C122.165 549.239 122.365 549.11 122.365 548.952Z" fill="white"/>
<path d="M11.6665 183.911C11.6665 183.645 11.3324 183.43 10.9204 183.43C10.5083 183.43 10.1743 183.645 10.1743 183.911C10.1743 184.176 10.5083 184.391 10.9204 184.391C11.3324 184.391 11.6665 184.176 11.6665 183.911Z" fill="white"/>
<path d="M335.026 200.063C335.026 199.711 334.584 199.426 334.038 199.426C333.492 199.426 333.05 199.711 333.05 200.063C333.05 200.415 333.492 200.7 334.038 200.7C334.584 200.7 335.026 200.415 335.026 200.063Z" fill="white"/>
<path d="M387.206 390.125C387.206 389.798 386.794 389.533 386.287 389.533C385.779 389.533 385.367 389.798 385.367 390.125C385.367 390.452 385.779 390.718 386.287 390.718C386.794 390.718 387.206 390.452 387.206 390.125Z" fill="white"/>
<path d="M65.3748 454.801C65.3748 454.446 64.9291 454.159 64.3793 454.159C63.8295 454.159 63.3838 454.446 63.3838 454.801C63.3838 455.155 63.8295 455.442 64.3793 455.442C64.9291 455.442 65.3748 455.155 65.3748 454.801Z" fill="white"/>
<path d="M286.186 403.09C286.186 402.842 285.874 402.641 285.489 402.641C285.103 402.641 284.791 402.842 284.791 403.09C284.791 403.339 285.103 403.54 285.489 403.54C285.874 403.54 286.186 403.339 286.186 403.09Z" fill="white"/>
<path d="M202.844 118.286C202.844 117.964 202.439 117.702 201.938 117.702C201.438 117.702 201.032 117.964 201.032 118.286C201.032 118.609 201.438 118.87 201.938 118.87C202.439 118.87 202.844 118.609 202.844 118.286Z" fill="white"/>
<path d="M400.932 573.453C400.932 573.166 400.572 572.934 400.127 572.934C399.683 572.934 399.322 573.166 399.322 573.453C399.322 573.739 399.683 573.971 400.127 573.971C400.572 573.971 400.932 573.739 400.932 573.453Z" fill="white"/>
<path d="M158.366 52.301C158.366 52.0526 158.054 51.8513 157.669 51.8513C157.283 51.8513 156.971 52.0526 156.971 52.301C156.971 52.5494 157.283 52.7508 157.669 52.7508C158.054 52.7508 158.366 52.5494 158.366 52.301Z" fill="white"/>
<path d="M1.05573 327.036C1.05573 326.848 0.819398 326.695 0.527866 326.695C0.236334 326.695 0 326.848 0 327.036C0 327.223 0.236334 327.376 0.527866 327.376C0.819398 327.376 1.05573 327.223 1.05573 327.036Z" fill="white"/>
<path d="M29.2123 246.583C29.2123 246.337 28.9033 246.138 28.522 246.138C28.1407 246.138 27.8315 246.337 27.8315 246.583C27.8315 246.829 28.1407 247.028 28.522 247.028C28.9033 247.028 29.2123 246.829 29.2123 246.583Z" fill="white"/>
<path d="M101.112 159.885C101.112 159.748 100.939 159.636 100.726 159.636C100.513 159.636 100.34 159.748 100.34 159.885C100.34 160.022 100.513 160.134 100.726 160.134C100.939 160.134 101.112 160.022 101.112 159.885Z" fill="white"/>
<path d="M131.395 465.181C131.395 464.975 131.136 464.808 130.817 464.808C130.497 464.808 130.238 464.975 130.238 465.181C130.238 465.387 130.497 465.554 130.817 465.554C131.136 465.554 131.395 465.387 131.395 465.181Z" fill="white"/>
<path d="M112.74 142.341C112.74 142.149 112.499 141.994 112.202 141.994C111.904 141.994 111.663 142.149 111.663 142.341C111.663 142.533 111.904 142.688 112.202 142.688C112.499 142.688 112.74 142.533 112.74 142.341Z" fill="white"/>
<path d="M384.39 162.907C384.39 162.623 384.033 162.393 383.593 162.393C383.153 162.393 382.796 162.623 382.796 162.907C382.796 163.191 383.153 163.421 383.593 163.421C384.033 163.421 384.39 163.191 384.39 162.907Z" fill="white"/>
<path d="M386.712 499.698C386.712 499.335 386.256 499.041 385.693 499.041C385.131 499.041 384.675 499.335 384.675 499.698C384.675 500.06 385.131 500.354 385.693 500.354C386.256 500.354 386.712 500.06 386.712 499.698Z" fill="white"/>
<path d="M189.15 8.55071C189.15 8.25467 188.778 8.01468 188.319 8.01468C187.859 8.01468 187.487 8.25467 187.487 8.55071C187.487 8.84675 187.859 9.08673 188.319 9.08673C188.778 9.08673 189.15 8.84675 189.15 8.55071Z" fill="white"/>
<path d="M55.6459 167.845C55.6459 167.674 55.4304 167.535 55.1647 167.535C54.899 167.535 54.6836 167.674 54.6836 167.845C54.6836 168.016 54.899 168.155 55.1647 168.155C55.4304 168.155 55.6459 168.016 55.6459 167.845Z" fill="white"/>
<path d="M392.078 8.78366C392.078 8.44692 391.654 8.17394 391.132 8.17394C390.609 8.17394 390.186 8.44692 390.186 8.78366C390.186 9.12039 390.609 9.39337 391.132 9.39337C391.654 9.39337 392.078 9.12039 392.078 8.78366Z" fill="white"/>
<path d="M380.518 29.2476C380.518 29.1056 380.339 28.9905 380.119 28.9905C379.899 28.9905 379.72 29.1056 379.72 29.2476C379.72 29.3896 379.899 29.5047 380.119 29.5047C380.339 29.5047 380.518 29.3896 380.518 29.2476Z" fill="white"/>
<path d="M127.81 497.09C127.81 496.799 127.445 496.563 126.994 496.563C126.542 496.563 126.177 496.799 126.177 497.09C126.177 497.38 126.542 497.616 126.994 497.616C127.445 497.616 127.81 497.38 127.81 497.09Z" fill="white"/>
<path d="M164.92 545.559C164.92 545.406 164.728 545.281 164.49 545.281C164.252 545.281 164.059 545.406 164.059 545.559C164.059 545.712 164.252 545.837 164.49 545.837C164.728 545.837 164.92 545.712 164.92 545.559Z" fill="white"/>
<path d="M182.501 218.866C182.501 218.544 182.096 218.282 181.595 218.282C181.095 218.282 180.69 218.544 180.69 218.866C180.69 219.189 181.095 219.45 181.595 219.45C182.096 219.45 182.501 219.189 182.501 218.866Z" fill="white"/>
<path d="M109.519 89.6534C109.519 89.3235 109.104 89.0561 108.592 89.0561C108.08 89.0561 107.665 89.3235 107.665 89.6534C107.665 89.9834 108.08 90.2508 108.592 90.2508C109.104 90.2508 109.519 89.9834 109.519 89.6534Z" fill="white"/>
<path d="M328.38 291.521C328.38 291.343 328.157 291.2 327.881 291.2C327.606 291.2 327.383 291.343 327.383 291.521C327.383 291.699 327.606 291.843 327.881 291.843C328.157 291.843 328.38 291.699 328.38 291.521Z" fill="white"/>
<path d="M55.5233 45.9056C55.5233 45.7657 55.3473 45.6523 55.1302 45.6523C54.9131 45.6523 54.7371 45.7657 54.7371 45.9056C54.7371 46.0455 54.9131 46.159 55.1302 46.159C55.3473 46.159 55.5233 46.0455 55.5233 45.9056Z" fill="white"/>
<path d="M189.421 117.193C189.421 116.894 189.045 116.652 188.581 116.652C188.116 116.652 187.74 116.894 187.74 117.193C187.74 117.493 188.116 117.735 188.581 117.735C189.045 117.735 189.421 117.493 189.421 117.193Z" fill="white"/>
<path d="M244.367 353.065C244.367 352.843 244.088 352.664 243.745 352.664C243.401 352.664 243.123 352.843 243.123 353.065C243.123 353.286 243.401 353.466 243.745 353.466C244.088 353.466 244.367 353.286 244.367 353.065Z" fill="white"/>
<path d="M245.929 299.887C245.929 299.535 245.487 299.25 244.94 299.25C244.394 299.25 243.952 299.535 243.952 299.887C243.952 300.239 244.394 300.524 244.94 300.524C245.487 300.524 245.929 300.239 245.929 299.887Z" fill="white"/>
<path d="M117.451 475.461C117.451 475.267 117.208 475.11 116.907 475.11C116.607 475.11 116.363 475.267 116.363 475.461C116.363 475.654 116.607 475.811 116.907 475.811C117.208 475.811 117.451 475.654 117.451 475.461Z" fill="white"/>
<path d="M375.379 550.964C375.379 550.673 375.013 550.437 374.561 550.437C374.11 550.437 373.743 550.673 373.743 550.964C373.743 551.255 374.11 551.491 374.561 551.491C375.013 551.491 375.379 551.255 375.379 550.964Z" fill="white"/>
<path d="M91.6923 184.536C91.6923 184.223 91.299 183.97 90.8138 183.97C90.3286 183.97 89.9353 184.223 89.9353 184.536C89.9353 184.849 90.3286 185.102 90.8138 185.102C91.299 185.102 91.6923 184.849 91.6923 184.536Z" fill="white"/>
<path d="M398.307 248.053C398.307 247.901 398.116 247.777 397.879 247.777C397.643 247.777 397.451 247.901 397.451 248.053C397.451 248.205 397.643 248.329 397.879 248.329C398.116 248.329 398.307 248.205 398.307 248.053Z" fill="white"/>
<path d="M329.256 426.143C329.256 425.898 328.948 425.7 328.568 425.7C328.188 425.7 327.879 425.898 327.879 426.143C327.879 426.388 328.188 426.587 328.568 426.587C328.948 426.587 329.256 426.388 329.256 426.143Z" fill="white"/>
<path d="M53.1806 577.848C53.1806 577.527 52.7773 577.267 52.2797 577.267C51.7822 577.267 51.3789 577.527 51.3789 577.848C51.3789 578.169 51.7822 578.429 52.2797 578.429C52.7773 578.429 53.1806 578.169 53.1806 577.848Z" fill="white"/>
<path d="M191.679 167.559C191.679 167.425 191.511 167.316 191.303 167.316C191.094 167.316 190.926 167.425 190.926 167.559C190.926 167.693 191.094 167.802 191.303 167.802C191.511 167.802 191.679 167.693 191.679 167.559Z" fill="white"/>
<path d="M319.601 248.66C319.601 248.508 319.41 248.385 319.173 248.385C318.937 248.385 318.745 248.508 318.745 248.66C318.745 248.813 318.937 248.936 319.173 248.936C319.41 248.936 319.601 248.813 319.601 248.66Z" fill="white"/>
<path d="M137.332 381.902C137.332 381.557 136.898 381.277 136.362 381.277C135.827 381.277 135.393 381.557 135.393 381.902C135.393 382.247 135.827 382.526 136.362 382.526C136.898 382.526 137.332 382.247 137.332 381.902Z" fill="white"/>
<path d="M213.534 399.879C213.534 399.654 213.251 399.472 212.902 399.472C212.553 399.472 212.271 399.654 212.271 399.879C212.271 400.104 212.553 400.286 212.902 400.286C213.251 400.286 213.534 400.104 213.534 399.879Z" fill="white"/>
<path d="M304.362 517.742C304.362 517.418 303.955 517.156 303.454 517.156C302.952 517.156 302.546 517.418 302.546 517.742C302.546 518.065 302.952 518.327 303.454 518.327C303.955 518.327 304.362 518.065 304.362 517.742Z" fill="white"/>
<path d="M351.587 309.099C351.587 308.768 351.171 308.499 350.657 308.499C350.143 308.499 349.727 308.768 349.727 309.099C349.727 309.43 350.143 309.698 350.657 309.698C351.171 309.698 351.587 309.43 351.587 309.099Z" fill="white"/>
<path d="M35.752 39.3944C35.752 39.1199 35.4067 38.8973 34.9807 38.8973C34.5548 38.8973 34.2095 39.1199 34.2095 39.3944C34.2095 39.6689 34.5548 39.8914 34.9807 39.8914C35.4067 39.8914 35.752 39.6689 35.752 39.3944Z" fill="white"/>
<path d="M27.3029 220.638C27.3029 220.405 27.01 220.216 26.6485 220.216C26.2871 220.216 25.9941 220.405 25.9941 220.638C25.9941 220.871 26.2871 221.059 26.6485 221.059C27.01 221.059 27.3029 220.871 27.3029 220.638Z" fill="white"/>
<path d="M74.7961 400.344C74.7961 400.137 74.5363 399.97 74.2158 399.97C73.8953 399.97 73.6355 400.137 73.6355 400.344C73.6355 400.55 73.8953 400.718 74.2158 400.718C74.5363 400.718 74.7961 400.55 74.7961 400.344Z" fill="white"/>
<path d="M321.717 575.804C321.717 575.481 321.311 575.219 320.809 575.219C320.308 575.219 319.901 575.481 319.901 575.804C319.901 576.127 320.308 576.389 320.809 576.389C321.311 576.389 321.717 576.127 321.717 575.804Z" fill="white"/>
<path d="M332.768 347.495C332.768 347.256 332.468 347.063 332.098 347.063C331.728 347.063 331.428 347.256 331.428 347.495C331.428 347.733 331.728 347.927 332.098 347.927C332.468 347.927 332.768 347.733 332.768 347.495Z" fill="white"/>
<path d="M178.577 6.9285C178.577 6.74511 178.347 6.59645 178.062 6.59645C177.778 6.59645 177.547 6.74511 177.547 6.9285C177.547 7.11189 177.778 7.26056 178.062 7.26056C178.347 7.26056 178.577 7.11189 178.577 6.9285Z" fill="white"/>
<path d="M133.803 250.504C133.803 250.295 133.539 250.125 133.214 250.125C132.889 250.125 132.626 250.295 132.626 250.504C132.626 250.714 132.889 250.884 133.214 250.884C133.539 250.884 133.803 250.714 133.803 250.504Z" fill="white"/>
<path d="M301.911 518.909C301.911 518.583 301.5 518.318 300.993 518.318C300.486 518.318 300.075 518.583 300.075 518.909C300.075 519.236 300.486 519.501 300.993 519.501C301.5 519.501 301.911 519.236 301.911 518.909Z" fill="white"/>
<path d="M318.117 68.3874C318.117 68.136 317.801 67.9322 317.411 67.9322C317.021 67.9322 316.705 68.136 316.705 68.3874C316.705 68.6388 317.021 68.8426 317.411 68.8426C317.801 68.8426 318.117 68.6388 318.117 68.3874Z" fill="white"/>
<path d="M204.802 15.2214C204.802 15.0854 204.631 14.9752 204.42 14.9752C204.209 14.9752 204.038 15.0854 204.038 15.2214C204.038 15.3574 204.209 15.4676 204.42 15.4676C204.631 15.4676 204.802 15.3574 204.802 15.2214Z" fill="white"/>
<path d="M220.743 490.566C220.743 490.369 220.494 490.208 220.187 490.208C219.88 490.208 219.632 490.369 219.632 490.566C219.632 490.764 219.88 490.925 220.187 490.925C220.494 490.925 220.743 490.764 220.743 490.566Z" fill="white"/>
<path d="M324.078 338.313C324.078 338.125 323.842 337.973 323.55 337.973C323.259 337.973 323.022 338.125 323.022 338.313C323.022 338.501 323.259 338.653 323.55 338.653C323.842 338.653 324.078 338.501 324.078 338.313Z" fill="white"/>
<path d="M332.206 397.279C332.206 397.11 331.994 396.973 331.732 396.973C331.47 396.973 331.257 397.11 331.257 397.279C331.257 397.448 331.47 397.585 331.732 397.585C331.994 397.585 332.206 397.448 332.206 397.279Z" fill="white"/>
<path d="M138.324 216.381C138.324 216.161 138.047 215.983 137.706 215.983C137.364 215.983 137.087 216.161 137.087 216.381C137.087 216.602 137.364 216.78 137.706 216.78C138.047 216.78 138.324 216.602 138.324 216.381Z" fill="white"/>
<path d="M372.714 63.2243C372.714 62.9379 372.354 62.7057 371.909 62.7057C371.465 62.7057 371.105 62.9379 371.105 63.2243C371.105 63.5108 371.465 63.743 371.909 63.743C372.354 63.743 372.714 63.5108 372.714 63.2243Z" fill="white"/>
<path d="M388.441 369.88C388.441 369.649 388.15 369.461 387.791 369.461C387.431 369.461 387.14 369.649 387.14 369.88C387.14 370.112 387.431 370.3 387.791 370.3C388.15 370.3 388.441 370.112 388.441 369.88Z" fill="white"/>
<path d="M392.578 267.648C392.578 267.377 392.237 267.157 391.816 267.157C391.395 267.157 391.054 267.377 391.054 267.648C391.054 267.92 391.395 268.139 391.816 268.139C392.237 268.139 392.578 267.92 392.578 267.648Z" fill="white"/>
<path d="M254.86 100.307C254.86 100.009 254.485 99.7664 254.021 99.7664C253.557 99.7664 253.181 100.009 253.181 100.307C253.181 100.606 253.557 100.848 254.021 100.848C254.485 100.848 254.86 100.606 254.86 100.307Z" fill="white"/>
<path d="M404.727 542.931C404.727 542.796 404.556 542.686 404.346 542.686C404.136 542.686 403.966 542.796 403.966 542.931C403.966 543.067 404.136 543.177 404.346 543.177C404.556 543.177 404.727 543.067 404.727 542.931Z" fill="white"/>
<path d="M234.332 390.614C234.332 390.405 234.069 390.235 233.744 390.235C233.419 390.235 233.156 390.405 233.156 390.614C233.156 390.823 233.419 390.993 233.744 390.993C234.069 390.993 234.332 390.823 234.332 390.614Z" fill="white"/>
<path d="M279.833 347.936C279.833 347.647 279.471 347.414 279.023 347.414C278.576 347.414 278.213 347.647 278.213 347.936C278.213 348.224 278.576 348.458 279.023 348.458C279.471 348.458 279.833 348.224 279.833 347.936Z" fill="white"/>
<path d="M96.3876 169.115C96.3876 168.832 96.0313 168.602 95.5918 168.602C95.1522 168.602 94.7959 168.832 94.7959 169.115C94.7959 169.398 95.1522 169.628 95.5918 169.628C96.0313 169.628 96.3876 169.398 96.3876 169.115Z" fill="white"/>
<path d="M159.458 245.507C159.458 245.239 159.121 245.022 158.705 245.022C158.289 245.022 157.951 245.239 157.951 245.507C157.951 245.776 158.289 245.993 158.705 245.993C159.121 245.993 159.458 245.776 159.458 245.507Z" fill="white"/>
<path d="M194.361 40.9624C194.361 40.6899 194.018 40.469 193.595 40.469C193.173 40.469 192.83 40.6899 192.83 40.9624C192.83 41.2349 193.173 41.4559 193.595 41.4559C194.018 41.4559 194.361 41.2349 194.361 40.9624Z" fill="white"/>
<path d="M330.423 113.478C330.423 113.25 330.137 113.066 329.784 113.066C329.431 113.066 329.145 113.25 329.145 113.478C329.145 113.705 329.431 113.889 329.784 113.889C330.137 113.889 330.423 113.705 330.423 113.478Z" fill="white"/>
<path d="M55.9867 495.322C55.9867 495.049 55.6428 494.827 55.2186 494.827C54.7943 494.827 54.4504 495.049 54.4504 495.322C54.4504 495.596 54.7943 495.817 55.2186 495.817C55.6428 495.817 55.9867 495.596 55.9867 495.322Z" fill="white"/>
<path d="M22.2045 497.378C22.2045 497.053 21.795 496.789 21.2899 496.789C20.7847 496.789 20.3752 497.053 20.3752 497.378C20.3752 497.704 20.7847 497.968 21.2899 497.968C21.795 497.968 22.2045 497.704 22.2045 497.378Z" fill="white"/>
<path d="M274.188 72.559C274.188 72.4348 274.032 72.3341 273.839 72.3341C273.646 72.3341 273.49 72.4348 273.49 72.559C273.49 72.6833 273.646 72.784 273.839 72.784C274.032 72.784 274.188 72.6833 274.188 72.559Z" fill="white"/>
<path d="M339.228 496.035C339.228 495.679 338.78 495.39 338.227 495.39C337.674 495.39 337.226 495.679 337.226 496.035C337.226 496.392 337.674 496.68 338.227 496.68C338.78 496.68 339.228 496.392 339.228 496.035Z" fill="white"/>
<path d="M406.615 408.36C406.615 408.083 406.266 407.859 405.837 407.859C405.407 407.859 405.058 408.083 405.058 408.36C405.058 408.638 405.407 408.862 405.837 408.862C406.266 408.862 406.615 408.638 406.615 408.36Z" fill="white"/>
<path d="M105.798 335.299C105.798 335.08 105.522 334.902 105.182 334.902C104.842 334.902 104.566 335.08 104.566 335.299C104.566 335.518 104.842 335.696 105.182 335.696C105.522 335.696 105.798 335.518 105.798 335.299Z" fill="white"/>
<path d="M124.7 376.836C124.7 376.682 124.507 376.558 124.268 376.558C124.03 376.558 123.837 376.682 123.837 376.836C123.837 376.99 124.03 377.114 124.268 377.114C124.507 377.114 124.7 376.99 124.7 376.836Z" fill="white"/>
<path d="M13.3861 544.898C13.3861 544.696 13.1316 544.532 12.8177 544.532C12.5038 544.532 12.2493 544.696 12.2493 544.898C12.2493 545.1 12.5038 545.264 12.8177 545.264C13.1316 545.264 13.3861 545.1 13.3861 544.898Z" fill="white"/>
<path d="M450.014 386.073C450.014 385.829 449.706 385.631 449.327 385.631C448.947 385.631 448.639 385.829 448.639 386.073C448.639 386.318 448.947 386.516 449.327 386.516C449.706 386.516 450.014 386.318 450.014 386.073Z" fill="white" fill-opacity="0.67857"/>
<path d="M456.109 275.759C456.109 275.514 455.801 275.316 455.422 275.316C455.042 275.316 454.734 275.514 454.734 275.759C454.734 276.004 455.042 276.202 455.422 276.202C455.801 276.202 456.109 276.004 456.109 275.759Z" fill="white" fill-opacity="0.67857"/>
<path d="M459.198 505.628C459.198 505.384 458.89 505.185 458.51 505.185C458.131 505.185 457.823 505.384 457.823 505.628C457.823 505.873 458.131 506.071 458.51 506.071C458.89 506.071 459.198 505.873 459.198 505.628Z" fill="white"/>
<path d="M450.7 310.782C450.7 310.565 450.426 310.388 450.088 310.388C449.75 310.388 449.476 310.565 449.476 310.782C449.476 311 449.75 311.177 450.088 311.177C450.426 311.177 450.7 311 450.7 310.782Z" fill="white" fill-opacity="0.67857"/>
<path d="M444.286 393.87C444.286 393.621 443.974 393.42 443.589 393.42C443.204 393.42 442.892 393.621 442.892 393.87C442.892 394.118 443.204 394.319 443.589 394.319C443.974 394.319 444.286 394.118 444.286 393.87Z" fill="white" fill-opacity="0.67857"/>
<path d="M462.529 407.98C462.529 408.231 462.221 408.435 461.841 408.435C461.462 408.435 461.154 408.231 461.154 407.98C461.154 407.728 461.462 407.524 461.841 407.524C462.221 407.524 462.529 407.728 462.529 407.98Z" fill="white" fill-opacity="0.67857"/>
<path d="M493.785 313.277C493.785 313.528 493.477 313.732 493.098 313.732C492.718 313.732 492.41 313.528 492.41 313.277C492.41 313.025 492.718 312.821 493.098 312.821C493.477 312.821 493.785 313.025 493.785 313.277Z" fill="white" fill-opacity="0.67857"/>
<path d="M477.657 359.83C477.657 360.333 477.042 360.741 476.283 360.741C475.523 360.741 474.908 360.333 474.908 359.83C474.908 359.327 475.523 358.919 476.283 358.919C477.042 358.919 477.657 359.327 477.657 359.83Z" fill="white" fill-opacity="0.67857"/>
<path d="M497.386 513.387C497.386 513.713 496.987 513.977 496.496 513.977C496.004 513.977 495.606 513.713 495.606 513.387C495.606 513.062 496.004 512.798 496.496 512.798C496.987 512.798 497.386 513.062 497.386 513.387Z" fill="white" fill-opacity="0.67857"/>
<path d="M474.993 579.965C474.993 580.331 474.545 580.628 473.993 580.628C473.44 580.628 472.992 580.331 472.992 579.965C472.992 579.598 473.44 579.302 473.993 579.302C474.545 579.302 474.993 579.598 474.993 579.965Z" fill="white"/>
<path d="M486.651 228.543C486.651 228.8 486.337 229.009 485.949 229.009C485.56 229.009 485.246 228.8 485.246 228.543C485.246 228.286 485.56 228.077 485.949 228.077C486.337 228.077 486.651 228.286 486.651 228.543Z" fill="white" fill-opacity="0.67857"/>
<path d="M497.892 56.9659C497.892 57.3155 497.464 57.599 496.936 57.599C496.409 57.599 495.981 57.3155 495.981 56.9659C495.981 56.6163 496.409 56.3328 496.936 56.3328C497.464 56.3328 497.892 56.6163 497.892 56.9659Z" fill="white"/>
<path d="M466.322 354.806C466.322 354.949 466.147 355.065 465.931 355.065C465.716 355.065 465.541 354.949 465.541 354.806C465.541 354.664 465.716 354.548 465.931 354.548C466.147 354.548 466.322 354.664 466.322 354.806Z" fill="white" fill-opacity="0.67857"/>
<path d="M471.931 120.875C471.931 121.207 471.524 121.477 471.022 121.477C470.52 121.477 470.113 121.207 470.113 120.875C470.113 120.542 470.52 120.272 471.022 120.272C471.524 120.272 471.931 120.542 471.931 120.875Z" fill="white" fill-opacity="0.67857"/>
<path d="M493.129 413.298C493.129 413.66 492.687 413.953 492.141 413.953C491.595 413.953 491.153 413.66 491.153 413.298C491.153 412.937 491.595 412.643 492.141 412.643C492.687 412.643 493.129 412.937 493.129 413.298Z" fill="white" fill-opacity="0.67857"/>
<path d="M486.486 319.261C486.486 319.444 486.262 319.592 485.987 319.592C485.711 319.592 485.488 319.444 485.488 319.261C485.488 319.079 485.711 318.93 485.987 318.93C486.262 318.93 486.486 319.079 486.486 319.261Z" fill="white" fill-opacity="0.67857"/>
<path d="M487.366 180.828C487.366 181.08 487.058 181.284 486.678 181.284C486.298 181.284 485.99 181.08 485.99 180.828C485.99 180.576 486.298 180.372 486.678 180.372C487.058 180.372 487.366 180.576 487.366 180.828Z" fill="white" fill-opacity="0.67857"/>
<path d="M477.699 363.333C477.699 363.49 477.507 363.617 477.271 363.617C477.034 363.617 476.843 363.49 476.843 363.333C476.843 363.177 477.034 363.05 477.271 363.05C477.507 363.05 477.699 363.177 477.699 363.333Z" fill="white" fill-opacity="0.67857"/>
<path d="M462.469 86.6397C462.469 86.9721 462.063 87.2416 461.561 87.2416C461.059 87.2416 460.653 86.9721 460.653 86.6397C460.653 86.3074 461.059 86.0379 461.561 86.0379C462.063 86.0379 462.469 86.3074 462.469 86.6397Z" fill="white"/>
<path d="M479.837 26.9425C479.837 27.2748 479.43 27.5443 478.929 27.5443C478.427 27.5443 478.021 27.2748 478.021 26.9425C478.021 26.6101 478.427 26.3406 478.929 26.3406C479.43 26.3406 479.837 26.6101 479.837 26.9425Z" fill="white"/>
<path d="M490.882 261.701C490.882 261.946 490.582 262.145 490.212 262.145C489.842 262.145 489.542 261.946 489.542 261.701C489.542 261.455 489.842 261.257 490.212 261.257C490.582 261.257 490.882 261.455 490.882 261.701Z" fill="white" fill-opacity="0.67857"/>
<path d="M476.222 548.697C476.222 548.956 475.905 549.165 475.515 549.165C475.125 549.165 474.809 548.956 474.809 548.697C474.809 548.439 475.125 548.229 475.515 548.229C475.905 548.229 476.222 548.439 476.222 548.697Z" fill="white" fill-opacity="0.67857"/>
<path d="M482.198 271.142C482.198 271.335 481.961 271.492 481.67 271.492C481.378 271.492 481.142 271.335 481.142 271.142C481.142 270.948 481.378 270.792 481.67 270.792C481.961 270.792 482.198 270.948 482.198 271.142Z" fill="white" fill-opacity="0.67857"/>
<path d="M490.329 210.509C490.329 210.682 490.117 210.823 489.855 210.823C489.593 210.823 489.381 210.682 489.381 210.509C489.381 210.335 489.593 210.194 489.855 210.194C490.117 210.194 490.329 210.335 490.329 210.509Z" fill="white" fill-opacity="0.67857"/>
<path d="M488.53 502.333C488.53 502.567 488.244 502.756 487.891 502.756C487.538 502.756 487.252 502.567 487.252 502.333C487.252 502.099 487.538 501.909 487.891 501.909C488.244 501.909 488.53 502.099 488.53 502.333Z" fill="white" fill-opacity="0.67857"/>
<path d="M497.332 108.967C497.332 109.333 496.884 109.631 496.331 109.631C495.778 109.631 495.329 109.333 495.329 108.967C495.329 108.601 495.778 108.304 496.331 108.304C496.884 108.304 497.332 108.601 497.332 108.967Z" fill="white"/>
<path d="M798.258 186.218C798.258 186.47 797.95 186.673 797.571 186.673C797.191 186.673 796.884 186.47 796.884 186.218C796.884 185.966 797.191 185.763 797.571 185.763C797.95 185.763 798.258 185.966 798.258 186.218Z" fill="white"/>
<path d="M804.352 299.648C804.352 299.899 804.044 300.103 803.665 300.103C803.285 300.103 802.978 299.899 802.978 299.648C802.978 299.396 803.285 299.192 803.665 299.192C804.044 299.192 804.352 299.396 804.352 299.648Z" fill="white"/>
<path d="M566.772 125.118C566.772 125.37 566.464 125.574 566.085 125.574C565.705 125.574 565.397 125.37 565.397 125.118C565.397 124.867 565.705 124.663 566.085 124.663C566.464 124.663 566.772 124.867 566.772 125.118Z" fill="white"/>
<path d="M520.933 523.488C520.933 523.739 520.625 523.943 520.245 523.943C519.866 523.943 519.558 523.739 519.558 523.488C519.558 523.236 519.866 523.032 520.245 523.032C520.625 523.032 520.933 523.236 520.933 523.488Z" fill="white"/>
<path d="M810.772 381.638C810.772 381.889 810.465 382.093 810.085 382.093C809.705 382.093 809.398 381.889 809.398 381.638C809.398 381.386 809.705 381.182 810.085 381.182C810.465 381.182 810.772 381.386 810.772 381.638Z" fill="white"/>
<path d="M888.535 138.163C888.535 138.415 888.227 138.619 887.847 138.619C887.468 138.619 887.16 138.415 887.16 138.163C887.16 137.912 887.468 137.708 887.847 137.708C888.227 137.708 888.535 137.912 888.535 138.163Z" fill="white"/>
<path d="M863.808 162.163C863.808 162.415 863.5 162.619 863.121 162.619C862.741 162.619 862.434 162.415 862.434 162.163C862.434 161.912 862.741 161.708 863.121 161.708C863.5 161.708 863.808 161.912 863.808 162.163Z" fill="white"/>
<path d="M807.443 63.2844C807.443 63.5359 807.135 63.7399 806.755 63.7399C806.376 63.7399 806.068 63.5359 806.068 63.2844C806.068 63.0328 806.376 62.8289 806.755 62.8289C807.135 62.8289 807.443 63.0328 807.443 63.2844Z" fill="white"/>
<path d="M842.028 286.941C842.028 287.192 841.721 287.396 841.341 287.396C840.962 287.396 840.654 287.192 840.654 286.941C840.654 286.689 840.962 286.485 841.341 286.485C841.721 286.485 842.028 286.689 842.028 286.941Z" fill="white"/>
<path d="M868.797 121.728C868.797 121.979 868.49 122.183 868.11 122.183C867.731 122.183 867.423 121.979 867.423 121.728C867.423 121.476 867.731 121.272 868.11 121.272C868.49 121.272 868.797 121.476 868.797 121.728Z" fill="white"/>
<path d="M742.382 417.166C742.382 417.669 741.766 418.077 741.007 418.077C740.248 418.077 739.633 417.669 739.633 417.166C739.633 416.663 740.248 416.255 741.007 416.255C741.766 416.255 742.382 416.663 742.382 417.166Z" fill="white"/>
<path d="M825.901 333.488C825.901 333.991 825.286 334.399 824.526 334.399C823.767 334.399 823.152 333.991 823.152 333.488C823.152 332.985 823.767 332.577 824.526 332.577C825.286 332.577 825.901 332.985 825.901 333.488Z" fill="white"/>
<path d="M547.422 247.765C547.422 248.268 546.807 248.676 546.048 248.676C545.289 248.676 544.673 248.268 544.673 247.765C544.673 247.262 545.289 246.854 546.048 246.854C546.807 246.854 547.422 247.262 547.422 247.765Z" fill="white"/>
<path d="M562.738 245.65C562.738 246.153 562.123 246.561 561.363 246.561C560.604 246.561 559.989 246.153 559.989 245.65C559.989 245.147 560.604 244.739 561.363 244.739C562.123 244.739 562.738 245.147 562.738 245.65Z" fill="white"/>
<path d="M573.914 145.879C573.914 146.382 573.299 146.789 572.539 146.789C571.78 146.789 571.165 146.382 571.165 145.879C571.165 145.375 571.78 144.968 572.539 144.968C573.299 144.968 573.914 145.375 573.914 145.879Z" fill="white"/>
<path d="M652.846 290.22C652.846 290.529 652.467 290.78 652 290.78C651.533 290.78 651.154 290.529 651.154 290.22C651.154 289.91 651.533 289.659 652 289.659C652.467 289.659 652.846 289.91 652.846 290.22Z" fill="white"/>
<path d="M515.353 447.578C515.353 447.849 515.021 448.069 514.612 448.069C514.203 448.069 513.871 447.849 513.871 447.578C513.871 447.307 514.203 447.087 514.612 447.087C515.021 447.087 515.353 447.307 515.353 447.578Z" fill="white"/>
<path d="M910.845 422.85C910.845 423.112 910.526 423.323 910.132 423.323C909.738 423.323 909.418 423.112 909.418 422.85C909.418 422.589 909.738 422.378 910.132 422.378C910.526 422.378 910.845 422.589 910.845 422.85Z" fill="white"/>
<path d="M856.993 388.377C856.993 388.739 856.55 389.032 856.004 389.032C855.458 389.032 855.015 388.739 855.015 388.377C855.015 388.015 855.458 387.721 856.004 387.721C856.55 387.721 856.993 388.015 856.993 388.377Z" fill="white"/>
<path d="M546.151 130.543C546.151 130.741 545.909 130.902 545.61 130.902C545.311 130.902 545.069 130.741 545.069 130.543C545.069 130.345 545.311 130.184 545.61 130.184C545.909 130.184 546.151 130.345 546.151 130.543Z" fill="white"/>
<path d="M845.63 487.046C845.63 487.371 845.232 487.635 844.74 487.635C844.249 487.635 843.85 487.371 843.85 487.046C843.85 486.72 844.249 486.456 844.74 486.456C845.232 486.456 845.63 486.72 845.63 487.046Z" fill="white"/>
<path d="M553.768 509.926C553.768 510.128 553.521 510.291 553.217 510.291C552.913 510.291 552.666 510.128 552.666 509.926C552.666 509.725 552.913 509.561 553.217 509.561C553.521 509.561 553.768 509.725 553.768 509.926Z" fill="white"/>
<path d="M701.245 118.939C701.245 119.309 700.792 119.609 700.233 119.609C699.675 119.609 699.222 119.309 699.222 118.939C699.222 118.568 699.675 118.268 700.233 118.268C700.792 118.268 701.245 118.568 701.245 118.939Z" fill="white"/>
<path d="M882.571 348.751C882.571 349.026 882.235 349.248 881.821 349.248C881.408 349.248 881.072 349.026 881.072 348.751C881.072 348.477 881.408 348.255 881.821 348.255C882.235 348.255 882.571 348.477 882.571 348.751Z" fill="white"/>
<path d="M907.219 471.541C907.219 471.863 906.825 472.124 906.34 472.124C905.854 472.124 905.46 471.863 905.46 471.541C905.46 471.219 905.854 470.958 906.34 470.958C906.825 470.958 907.219 471.219 907.219 471.541Z" fill="white"/>
<path d="M823.24 553.621C823.24 553.987 822.792 554.284 822.239 554.284C821.687 554.284 821.239 553.987 821.239 553.621C821.239 553.255 821.687 552.958 822.239 552.958C822.792 552.958 823.24 553.255 823.24 553.621Z" fill="white"/>
<path d="M913.589 175.678C913.589 175.889 913.33 176.06 913.012 176.06C912.693 176.06 912.435 175.889 912.435 175.678C912.435 175.467 912.693 175.296 913.012 175.296C913.33 175.296 913.589 175.467 913.589 175.678Z" fill="white"/>
<path d="M834.895 202.205C834.895 202.462 834.58 202.671 834.192 202.671C833.804 202.671 833.489 202.462 833.489 202.205C833.489 201.948 833.804 201.739 834.192 201.739C834.58 201.739 834.895 201.948 834.895 202.205Z" fill="white"/>
<path d="M553.339 514.349C553.339 514.519 553.131 514.657 552.875 514.657C552.618 514.657 552.411 514.519 552.411 514.349C552.411 514.18 552.618 514.042 552.875 514.042C553.131 514.042 553.339 514.18 553.339 514.349Z" fill="white"/>
<path d="M855.057 201.373C855.057 201.735 854.614 202.029 854.068 202.029C853.521 202.029 853.078 201.735 853.078 201.373C853.078 201.011 853.521 200.718 854.068 200.718C854.614 200.718 855.057 201.011 855.057 201.373Z" fill="white"/>
<path d="M760.666 581.536C760.666 581.676 760.494 581.79 760.283 581.79C760.071 581.79 759.9 581.676 759.9 581.536C759.9 581.396 760.071 581.282 760.283 581.282C760.494 581.282 760.666 581.396 760.666 581.536Z" fill="white"/>
<path d="M814.552 328.469C814.552 328.611 814.377 328.727 814.162 328.727C813.946 328.727 813.771 328.611 813.771 328.469C813.771 328.326 813.946 328.21 814.162 328.21C814.377 328.21 814.552 328.326 814.552 328.469Z" fill="white"/>
<path d="M636.355 505.131C636.355 505.292 636.158 505.423 635.914 505.423C635.671 505.423 635.473 505.292 635.473 505.131C635.473 504.97 635.671 504.839 635.914 504.839C636.158 504.839 636.355 504.97 636.355 505.131Z" fill="white"/>
<path d="M599.237 96.6031C599.237 96.9595 598.801 97.2484 598.263 97.2484C597.726 97.2484 597.29 96.9595 597.29 96.6031C597.29 96.2467 597.726 95.9578 598.263 95.9578C598.801 95.9578 599.237 96.2467 599.237 96.6031Z" fill="white"/>
<path d="M853.517 102.273C853.517 102.623 853.089 102.906 852.561 102.906C852.033 102.906 851.605 102.623 851.605 102.273C851.605 101.923 852.033 101.639 852.561 101.639C853.089 101.639 853.517 101.923 853.517 102.273Z" fill="white"/>
<path d="M772.653 341.383C772.653 341.52 772.486 341.631 772.279 341.631C772.073 341.631 771.906 341.52 771.906 341.383C771.906 341.246 772.073 341.136 772.279 341.136C772.486 341.136 772.653 341.246 772.653 341.383Z" fill="white"/>
<path d="M605.691 577.319C605.691 577.521 605.443 577.686 605.138 577.686C604.832 577.686 604.584 577.521 604.584 577.319C604.584 577.116 604.832 576.952 605.138 576.952C605.443 576.952 605.691 577.116 605.691 577.319Z" fill="white"/>
<path d="M589.032 509.927C589.032 510.285 588.594 510.576 588.053 510.576C587.513 510.576 587.074 510.285 587.074 509.927C587.074 509.569 587.513 509.278 588.053 509.278C588.594 509.278 589.032 509.569 589.032 509.927Z" fill="white"/>
<path d="M551.987 359.379C551.987 359.699 551.595 359.958 551.113 359.958C550.63 359.958 550.239 359.699 550.239 359.379C550.239 359.059 550.63 358.8 551.113 358.8C551.595 358.8 551.987 359.059 551.987 359.379Z" fill="white"/>
<path d="M639.106 543.875C639.106 544.206 638.701 544.474 638.203 544.474C637.704 544.474 637.299 544.206 637.299 543.875C637.299 543.544 637.704 543.276 638.203 543.276C638.701 543.276 639.106 543.544 639.106 543.875Z" fill="white"/>
<path d="M717.996 274.037C717.996 274.282 717.696 274.48 717.326 274.48C716.956 274.48 716.656 274.282 716.656 274.037C716.656 273.791 716.956 273.593 717.326 273.593C717.696 273.593 717.996 273.791 717.996 274.037Z" fill="white"/>
<path d="M820.174 94.5544C820.174 94.8871 819.767 95.1569 819.265 95.1569C818.763 95.1569 818.356 94.8871 818.356 94.5544C818.356 94.2217 818.763 93.952 819.265 93.952C819.767 93.952 820.174 94.2217 820.174 94.5544Z" fill="white"/>
<path d="M722.784 472.911C722.784 473.207 722.421 473.448 721.974 473.448C721.526 473.448 721.163 473.207 721.163 472.911C721.163 472.614 721.526 472.374 721.974 472.374C722.421 472.374 722.784 472.614 722.784 472.911Z" fill="white"/>
<path d="M549.989 38.7503C549.989 39.0887 549.575 39.363 549.064 39.363C548.553 39.363 548.139 39.0887 548.139 38.7503C548.139 38.4119 548.553 38.1375 549.064 38.1375C549.575 38.1375 549.989 38.4119 549.989 38.7503Z" fill="white"/>
<path d="M626.886 409.34C626.886 409.486 626.708 409.604 626.488 409.604C626.269 409.604 626.091 409.486 626.091 409.34C626.091 409.195 626.269 409.077 626.488 409.077C626.708 409.077 626.886 409.195 626.886 409.34Z" fill="white"/>
<path d="M717.779 228.101C717.779 228.343 717.483 228.539 717.118 228.539C716.753 228.539 716.457 228.343 716.457 228.101C716.457 227.859 716.753 227.663 717.118 227.663C717.483 227.663 717.779 227.859 717.779 228.101Z" fill="white"/>
<path d="M592.407 499.185C592.407 499.419 592.12 499.609 591.767 499.609C591.413 499.609 591.127 499.419 591.127 499.185C591.127 498.95 591.413 498.761 591.767 498.761C592.12 498.761 592.407 498.95 592.407 499.185Z" fill="white"/>
<path d="M695.229 528.552C695.229 528.907 694.795 529.195 694.259 529.195C693.723 529.195 693.288 528.907 693.288 528.552C693.288 528.197 693.723 527.909 694.259 527.909C694.795 527.909 695.229 528.197 695.229 528.552Z" fill="white"/>
<path d="M563.709 17.8968C563.709 18.2255 563.307 18.492 562.811 18.492C562.314 18.492 561.912 18.2255 561.912 17.8968C561.912 17.5681 562.314 17.3016 562.811 17.3016C563.307 17.3016 563.709 17.5681 563.709 17.8968Z" fill="white"/>
<path d="M890.022 273.332C890.022 273.471 889.852 273.585 889.641 273.585C889.43 273.585 889.26 273.471 889.26 273.332C889.26 273.192 889.43 273.079 889.641 273.079C889.852 273.079 890.022 273.192 890.022 273.332Z" fill="white"/>
<path d="M781.1 80.4678C781.1 80.8163 780.674 81.0988 780.148 81.0988C779.622 81.0988 779.196 80.8163 779.196 80.4678C779.196 80.1193 779.622 79.8367 780.148 79.8367C780.674 79.8367 781.1 80.1193 781.1 80.4678Z" fill="white"/>
<path d="M690.381 281.587C690.381 281.926 689.967 282.201 689.455 282.201C688.944 282.201 688.529 281.926 688.529 281.587C688.529 281.248 688.944 280.973 689.455 280.973C689.967 280.973 690.381 281.248 690.381 281.587Z" fill="white"/>
<path d="M844.578 561.701C844.578 561.846 844.401 561.963 844.184 561.963C843.966 561.963 843.79 561.846 843.79 561.701C843.79 561.557 843.966 561.44 844.184 561.44C844.401 561.44 844.578 561.557 844.578 561.701Z" fill="white"/>
<path d="M746.665 9.46301C746.665 9.81537 746.234 10.101 745.702 10.101C745.171 10.101 744.74 9.81537 744.74 9.46301C744.74 9.11066 745.171 8.82501 745.702 8.82501C746.234 8.82501 746.665 9.11066 746.665 9.46301Z" fill="white"/>
<path d="M576.374 579.929C576.374 580.282 575.942 580.568 575.409 580.568C574.877 580.568 574.445 580.282 574.445 579.929C574.445 579.576 574.877 579.29 575.409 579.29C575.942 579.29 576.374 579.576 576.374 579.929Z" fill="white"/>
<path d="M737.77 242.13C737.77 242.374 737.471 242.573 737.101 242.573C736.732 242.573 736.432 242.374 736.432 242.13C736.432 241.885 736.732 241.686 737.101 241.686C737.471 241.686 737.77 241.885 737.77 242.13Z" fill="white"/>
<path d="M540.807 91.5799C540.807 91.808 540.528 91.9929 540.184 91.9929C539.84 91.9929 539.561 91.808 539.561 91.5799C539.561 91.3518 539.84 91.1668 540.184 91.1668C540.528 91.1668 540.807 91.3518 540.807 91.5799Z" fill="white"/>
<path d="M605.611 324.022C605.611 324.296 605.276 324.518 604.863 324.518C604.45 324.518 604.115 324.296 604.115 324.022C604.115 323.748 604.45 323.526 604.863 323.526C605.276 323.526 605.611 323.748 605.611 324.022Z" fill="white"/>
<path d="M636.645 444.449C636.645 444.702 636.336 444.907 635.954 444.907C635.573 444.907 635.263 444.702 635.263 444.449C635.263 444.196 635.573 443.991 635.954 443.991C636.336 443.991 636.645 444.196 636.645 444.449Z" fill="white"/>
<path d="M666.362 79.106C666.362 79.4089 665.991 79.6545 665.534 79.6545C665.077 79.6545 664.706 79.4089 664.706 79.106C664.706 78.803 665.077 78.5574 665.534 78.5574C665.991 78.5574 666.362 78.803 666.362 79.106Z" fill="white"/>
<path d="M767.494 263.59C767.494 263.822 767.21 264.01 766.86 264.01C766.511 264.01 766.227 263.822 766.227 263.59C766.227 263.359 766.511 263.171 766.86 263.171C767.21 263.171 767.494 263.359 767.494 263.59Z" fill="white"/>
<path d="M528.239 371.915C528.239 372.189 527.904 372.41 527.492 372.41C527.08 372.41 526.746 372.189 526.746 371.915C526.746 371.642 527.08 371.421 527.492 371.421C527.904 371.421 528.239 371.642 528.239 371.915Z" fill="white"/>
<path d="M662.173 510.968C662.173 511.223 661.862 511.429 661.477 511.429C661.093 511.429 660.781 511.223 660.781 510.968C660.781 510.713 661.093 510.507 661.477 510.507C661.862 510.507 662.173 510.713 662.173 510.968Z" fill="white"/>
<path d="M682.443 314.187C682.443 314.418 682.161 314.605 681.814 314.605C681.466 314.605 681.184 314.418 681.184 314.187C681.184 313.957 681.466 313.77 681.814 313.77C682.161 313.77 682.443 313.957 682.443 314.187Z" fill="white"/>
<path d="M598.217 146.581C598.217 146.729 598.037 146.848 597.815 146.848C597.593 146.848 597.413 146.729 597.413 146.581C597.413 146.434 597.593 146.315 597.815 146.315C598.037 146.315 598.217 146.434 598.217 146.581Z" fill="white"/>
<path d="M798.94 263.637C798.94 263.861 798.666 264.042 798.328 264.042C797.99 264.042 797.717 263.861 797.717 263.637C797.717 263.413 797.99 263.231 798.328 263.231C798.666 263.231 798.94 263.413 798.94 263.637Z" fill="white"/>
<path d="M654.436 462.303C654.436 462.532 654.156 462.718 653.81 462.718C653.464 462.718 653.184 462.532 653.184 462.303C653.184 462.073 653.464 461.888 653.81 461.888C654.156 461.888 654.436 462.073 654.436 462.303Z" fill="white"/>
<path d="M859.106 287.415C859.106 287.728 858.724 287.981 858.251 287.981C857.779 287.981 857.397 287.728 857.397 287.415C857.397 287.102 857.779 286.848 858.251 286.848C858.724 286.848 859.106 287.102 859.106 287.415Z" fill="white"/>
<path d="M599.646 382.606C599.646 382.842 599.357 383.033 599.001 383.033C598.645 383.033 598.356 382.842 598.356 382.606C598.356 382.37 598.645 382.179 599.001 382.179C599.357 382.179 599.646 382.37 599.646 382.606Z" fill="white"/>
<path d="M704.971 201.194C704.971 201.52 704.571 201.785 704.078 201.785C703.586 201.785 703.186 201.52 703.186 201.194C703.186 200.867 703.586 200.602 704.078 200.602C704.571 200.602 704.971 200.867 704.971 201.194Z" fill="white"/>
<path d="M628.715 28.2105C628.715 28.3738 628.515 28.5062 628.269 28.5062C628.022 28.5062 627.823 28.3738 627.823 28.2105C627.823 28.0472 628.022 27.9149 628.269 27.9149C628.515 27.9149 628.715 28.0472 628.715 28.2105Z" fill="white"/>
<path d="M518.017 403.571C518.017 403.844 517.683 404.066 517.271 404.066C516.859 404.066 516.525 403.844 516.525 403.571C516.525 403.298 516.859 403.077 517.271 403.077C517.683 403.077 518.017 403.298 518.017 403.571Z" fill="white"/>
<path d="M841.376 386.964C841.376 387.326 840.934 387.619 840.388 387.619C839.842 387.619 839.4 387.326 839.4 386.964C839.4 386.603 839.842 386.309 840.388 386.309C840.934 386.309 841.376 386.603 841.376 386.964Z" fill="white"/>
<path d="M893.557 191.528C893.557 191.865 893.145 192.137 892.637 192.137C892.13 192.137 891.718 191.865 891.718 191.528C891.718 191.192 892.13 190.919 892.637 190.919C893.145 190.919 893.557 191.192 893.557 191.528Z" fill="white"/>
<path d="M571.725 125.022C571.725 125.386 571.279 125.682 570.729 125.682C570.18 125.682 569.734 125.386 569.734 125.022C569.734 124.657 570.18 124.362 570.729 124.362C571.279 124.362 571.725 124.657 571.725 125.022Z" fill="white"/>
<path d="M792.536 178.197C792.536 178.453 792.224 178.659 791.839 178.659C791.454 178.659 791.142 178.453 791.142 178.197C791.142 177.942 791.454 177.735 791.839 177.735C792.224 177.735 792.536 177.942 792.536 178.197Z" fill="white"/>
<path d="M709.195 471.05C709.195 471.382 708.789 471.651 708.289 471.651C707.788 471.651 707.383 471.382 707.383 471.05C707.383 470.719 707.788 470.45 708.289 470.45C708.789 470.45 709.195 470.719 709.195 471.05Z" fill="white"/>
<path d="M664.717 538.901C664.717 539.156 664.405 539.363 664.019 539.363C663.634 539.363 663.321 539.156 663.321 538.901C663.321 538.645 663.634 538.438 664.019 538.438C664.405 538.438 664.717 538.645 664.717 538.901Z" fill="white"/>
<path d="M507.406 256.401C507.406 256.595 507.17 256.751 506.878 256.751C506.587 256.751 506.35 256.595 506.35 256.401C506.35 256.208 506.587 256.052 506.878 256.052C507.17 256.052 507.406 256.208 507.406 256.401Z" fill="white"/>
<path d="M535.563 339.126C535.563 339.379 535.254 339.584 534.873 339.584C534.491 339.584 534.182 339.379 534.182 339.126C534.182 338.874 534.491 338.669 534.873 338.669C535.254 338.669 535.563 338.874 535.563 339.126Z" fill="white"/>
<path d="M607.462 428.276C607.462 428.417 607.29 428.531 607.077 428.531C606.864 428.531 606.691 428.417 606.691 428.276C606.691 428.135 606.864 428.02 607.077 428.02C607.29 428.02 607.462 428.135 607.462 428.276Z" fill="white"/>
<path d="M637.745 114.349C637.745 114.561 637.486 114.732 637.167 114.732C636.848 114.732 636.589 114.561 636.589 114.349C636.589 114.137 636.848 113.966 637.167 113.966C637.486 113.966 637.745 114.137 637.745 114.349Z" fill="white"/>
<path d="M619.09 446.317C619.09 446.514 618.849 446.674 618.552 446.674C618.254 446.674 618.013 446.514 618.013 446.317C618.013 446.12 618.254 445.96 618.552 445.96C618.849 445.96 619.09 446.12 619.09 446.317Z" fill="white"/>
<path d="M890.74 425.168C890.74 425.459 890.383 425.696 889.943 425.696C889.503 425.696 889.146 425.459 889.146 425.168C889.146 424.876 889.503 424.639 889.943 424.639C890.383 424.639 890.74 424.876 890.74 425.168Z" fill="white"/>
<path d="M893.062 78.8596C893.062 79.2324 892.606 79.5347 892.043 79.5347C891.481 79.5347 891.025 79.2324 891.025 78.8596C891.025 78.4867 891.481 78.1844 892.043 78.1844C892.606 78.1844 893.062 78.4867 893.062 78.8596Z" fill="white"/>
<path d="M695.501 583.89C695.501 584.194 695.128 584.441 694.669 584.441C694.21 584.441 693.837 584.194 693.837 583.89C693.837 583.585 694.21 583.339 694.669 583.339C695.128 583.339 695.501 583.585 695.501 583.89Z" fill="white"/>
<path d="M561.996 420.089C561.996 420.265 561.781 420.408 561.515 420.408C561.249 420.408 561.034 420.265 561.034 420.089C561.034 419.913 561.249 419.77 561.515 419.77C561.781 419.77 561.996 419.913 561.996 420.089Z" fill="white"/>
<path d="M886.868 562.605C886.868 562.751 886.69 562.869 886.47 562.869C886.249 562.869 886.071 562.751 886.071 562.605C886.071 562.459 886.249 562.341 886.47 562.341C886.69 562.341 886.868 562.459 886.868 562.605Z" fill="white"/>
<path d="M634.16 81.5382C634.16 81.8371 633.795 82.0795 633.344 82.0795C632.893 82.0795 632.527 81.8371 632.527 81.5382C632.527 81.2392 632.893 80.9969 633.344 80.9969C633.795 80.9969 634.16 81.2392 634.16 81.5382Z" fill="white"/>
<path d="M671.271 31.6985C671.271 31.8562 671.078 31.984 670.84 31.984C670.602 31.984 670.409 31.8562 670.409 31.6985C670.409 31.5407 670.602 31.4129 670.84 31.4129C671.078 31.4129 671.271 31.5407 671.271 31.6985Z" fill="white"/>
<path d="M688.852 367.628C688.852 367.96 688.446 368.229 687.946 368.229C687.446 368.229 687.04 367.96 687.04 367.628C687.04 367.297 687.446 367.028 687.946 367.028C688.446 367.028 688.852 367.297 688.852 367.628Z" fill="white"/>
<path d="M615.869 500.494C615.869 500.833 615.454 501.108 614.942 501.108C614.431 501.108 614.016 500.833 614.016 500.494C614.016 500.155 614.431 499.88 614.942 499.88C615.454 499.88 615.869 500.155 615.869 500.494Z" fill="white"/>
<path d="M834.73 292.919C834.73 293.102 834.507 293.25 834.232 293.25C833.956 293.25 833.733 293.102 833.733 292.919C833.733 292.737 833.956 292.589 834.232 292.589C834.507 292.589 834.73 292.737 834.73 292.919Z" fill="white"/>
<path d="M561.873 545.478C561.873 545.622 561.697 545.739 561.48 545.739C561.263 545.739 561.087 545.622 561.087 545.478C561.087 545.334 561.263 545.218 561.48 545.218C561.697 545.218 561.873 545.334 561.873 545.478Z" fill="white"/>
<path d="M695.772 472.171C695.772 472.479 695.396 472.728 694.931 472.728C694.467 472.728 694.091 472.479 694.091 472.171C694.091 471.863 694.467 471.614 694.931 471.614C695.396 471.614 695.772 471.863 695.772 472.171Z" fill="white"/>
<path d="M750.717 229.638C750.717 229.865 750.439 230.05 750.096 230.05C749.752 230.05 749.474 229.865 749.474 229.638C749.474 229.41 749.752 229.225 750.096 229.225C750.439 229.225 750.717 229.41 750.717 229.638Z" fill="white"/>
<path d="M752.28 284.318C752.28 284.68 751.837 284.973 751.291 284.973C750.745 284.973 750.302 284.68 750.302 284.318C750.302 283.956 750.745 283.663 751.291 283.663C751.837 283.663 752.28 283.956 752.28 284.318Z" fill="white"/>
<path d="M623.802 103.781C623.802 103.98 623.558 104.142 623.258 104.142C622.957 104.142 622.714 103.98 622.714 103.781C622.714 103.582 622.957 103.421 623.258 103.421C623.558 103.421 623.802 103.582 623.802 103.781Z" fill="white"/>
<path d="M881.731 26.1425C881.731 26.4419 881.365 26.6846 880.913 26.6846C880.461 26.6846 880.095 26.4419 880.095 26.1425C880.095 25.8431 880.461 25.6004 880.913 25.6004C881.365 25.6004 881.731 25.8431 881.731 26.1425Z" fill="white"/>
<path d="M598.043 402.927C598.043 403.248 597.649 403.509 597.164 403.509C596.679 403.509 596.286 403.248 596.286 402.927C596.286 402.605 596.679 402.345 597.164 402.345C597.649 402.345 598.043 402.605 598.043 402.927Z" fill="white"/>
<path d="M904.658 337.617C904.658 337.773 904.466 337.9 904.23 337.9C903.993 337.9 903.802 337.773 903.802 337.617C903.802 337.46 903.993 337.333 904.23 337.333C904.466 337.333 904.658 337.46 904.658 337.617Z" fill="white"/>
<path d="M835.606 154.492C835.606 154.744 835.298 154.948 834.918 154.948C834.538 154.948 834.23 154.744 834.23 154.492C834.23 154.24 834.538 154.036 834.918 154.036C835.298 154.036 835.606 154.24 835.606 154.492Z" fill="white"/>
<path d="M698.03 420.385C698.03 420.523 697.861 420.635 697.653 420.635C697.445 420.635 697.276 420.523 697.276 420.385C697.276 420.247 697.445 420.136 697.653 420.136C697.861 420.136 698.03 420.247 698.03 420.385Z" fill="white"/>
<path d="M825.951 336.99C825.951 337.146 825.76 337.273 825.523 337.273C825.287 337.273 825.095 337.146 825.095 336.99C825.095 336.833 825.287 336.706 825.523 336.706C825.76 336.706 825.951 336.833 825.951 336.99Z" fill="white"/>
<path d="M643.682 199.983C643.682 200.338 643.248 200.625 642.713 200.625C642.177 200.625 641.743 200.338 641.743 199.983C641.743 199.628 642.177 199.341 642.713 199.341C643.248 199.341 643.682 199.628 643.682 199.983Z" fill="white"/>
<path d="M719.884 181.497C719.884 181.729 719.601 181.916 719.252 181.916C718.903 181.916 718.621 181.729 718.621 181.497C718.621 181.266 718.903 181.079 719.252 181.079C719.601 181.079 719.884 181.266 719.884 181.497Z" fill="white"/>
<path d="M857.938 274.846C857.938 275.186 857.521 275.462 857.007 275.462C856.494 275.462 856.077 275.186 856.077 274.846C856.077 274.505 856.494 274.229 857.007 274.229C857.521 274.229 857.938 274.505 857.938 274.846Z" fill="white"/>
<path d="M542.102 552.172C542.102 552.454 541.757 552.683 541.331 552.683C540.905 552.683 540.56 552.454 540.56 552.172C540.56 551.89 540.905 551.661 541.331 551.661C541.757 551.661 542.102 551.89 542.102 552.172Z" fill="white"/>
<path d="M533.654 365.808C533.654 366.047 533.361 366.241 532.999 366.241C532.638 366.241 532.345 366.047 532.345 365.808C532.345 365.568 532.638 365.374 532.999 365.374C533.361 365.374 533.654 365.568 533.654 365.808Z" fill="white"/>
<path d="M581.146 181.02C581.146 181.232 580.886 181.405 580.566 181.405C580.245 181.405 579.986 181.232 579.986 181.02C579.986 180.808 580.245 180.636 580.566 180.636C580.886 180.636 581.146 180.808 581.146 181.02Z" fill="white"/>
<path d="M828.067 0.602609C828.067 0.934984 827.661 1.20443 827.159 1.20443C826.658 1.20443 826.251 0.934984 826.251 0.602609C826.251 0.270235 826.658 0.000793457 827.159 0.000793457C827.661 0.000793457 828.067 0.270235 828.067 0.602609Z" fill="white"/>
<path d="M640.153 335.094C640.153 335.309 639.889 335.484 639.565 335.484C639.24 335.484 638.976 335.309 638.976 335.094C638.976 334.879 639.24 334.704 639.565 334.704C639.889 334.704 640.153 334.879 640.153 335.094Z" fill="white"/>
<path d="M824.468 522.361C824.468 522.62 824.152 522.829 823.761 522.829C823.371 522.829 823.055 522.62 823.055 522.361C823.055 522.103 823.371 521.893 823.761 521.893C824.152 521.893 824.468 522.103 824.468 522.361Z" fill="white"/>
<path d="M711.153 577.029C711.153 577.169 710.982 577.282 710.771 577.282C710.56 577.282 710.389 577.169 710.389 577.029C710.389 576.89 710.56 576.776 710.771 576.776C710.982 576.776 711.153 576.89 711.153 577.029Z" fill="white"/>
<path d="M727.094 88.248C727.094 88.4514 726.845 88.6162 726.538 88.6162C726.231 88.6162 725.982 88.4514 725.982 88.248C725.982 88.0446 726.231 87.8797 726.538 87.8797C726.845 87.8797 727.094 88.0446 727.094 88.248Z" fill="white"/>
<path d="M830.428 244.806C830.428 244.999 830.192 245.156 829.9 245.156C829.609 245.156 829.372 244.999 829.372 244.806C829.372 244.613 829.609 244.456 829.9 244.456C830.192 244.456 830.428 244.613 830.428 244.806Z" fill="white"/>
<path d="M838.556 184.173C838.556 184.346 838.344 184.487 838.082 184.487C837.82 184.487 837.608 184.346 837.608 184.173C837.608 183.999 837.82 183.858 838.082 183.858C838.344 183.858 838.556 183.999 838.556 184.173Z" fill="white"/>
<path d="M644.674 370.184C644.674 370.411 644.397 370.594 644.056 370.594C643.714 370.594 643.437 370.411 643.437 370.184C643.437 369.958 643.714 369.774 644.056 369.774C644.397 369.774 644.674 369.958 644.674 370.184Z" fill="white"/>
<path d="M894.791 212.344C894.791 212.582 894.5 212.775 894.14 212.775C893.781 212.775 893.49 212.582 893.49 212.344C893.49 212.106 893.781 211.913 894.14 211.913C894.5 211.913 894.791 212.106 894.791 212.344Z" fill="white"/>
<path d="M898.929 317.467C898.929 317.746 898.588 317.972 898.167 317.972C897.746 317.972 897.405 317.746 897.405 317.467C897.405 317.188 897.746 316.962 898.167 316.962C898.588 316.962 898.929 317.188 898.929 317.467Z" fill="white"/>
<path d="M761.211 489.54C761.211 489.847 760.835 490.096 760.371 490.096C759.908 490.096 759.532 489.847 759.532 489.54C759.532 489.232 759.908 488.983 760.371 488.983C760.835 488.983 761.211 489.232 761.211 489.54Z" fill="white"/>
<path d="M911.078 34.4014C911.078 34.5406 910.908 34.6535 910.698 34.6535C910.488 34.6535 910.317 34.5406 910.317 34.4014C910.317 34.2621 910.488 34.1492 910.698 34.1492C910.908 34.1492 911.078 34.2621 911.078 34.4014Z" fill="white"/>
<path d="M740.682 191.025C740.682 191.24 740.419 191.415 740.094 191.415C739.77 191.415 739.507 191.24 739.507 191.025C739.507 190.81 739.77 190.636 740.094 190.636C740.419 190.636 740.682 190.81 740.682 191.025Z" fill="white"/>
<path d="M786.184 234.909C786.184 235.205 785.821 235.446 785.374 235.446C784.926 235.446 784.564 235.205 784.564 234.909C784.564 234.612 784.926 234.372 785.374 234.372C785.821 234.372 786.184 234.612 786.184 234.909Z" fill="white"/>
<path d="M602.738 418.786C602.738 419.077 602.381 419.313 601.942 419.313C601.502 419.313 601.146 419.077 601.146 418.786C601.146 418.495 601.502 418.259 601.942 418.259C602.381 418.259 602.738 418.495 602.738 418.786Z" fill="white"/>
<path d="M665.809 340.235C665.809 340.51 665.471 340.734 665.055 340.734C664.639 340.734 664.302 340.51 664.302 340.235C664.302 339.959 664.639 339.735 665.055 339.735C665.471 339.735 665.809 339.959 665.809 340.235Z" fill="white"/>
<path d="M700.712 550.559C700.712 550.839 700.369 551.066 699.946 551.066C699.523 551.066 699.18 550.839 699.18 550.559C699.18 550.279 699.523 550.052 699.946 550.052C700.369 550.052 700.712 550.279 700.712 550.559Z" fill="white"/>
<path d="M836.774 475.997C836.774 476.231 836.488 476.42 836.135 476.42C835.782 476.42 835.495 476.231 835.495 475.997C835.495 475.763 835.782 475.573 836.135 475.573C836.488 475.573 836.774 475.763 836.774 475.997Z" fill="white"/>
<path d="M562.337 83.3555C562.337 83.6367 561.993 83.8646 561.569 83.8646C561.145 83.8646 560.801 83.6367 560.801 83.3555C560.801 83.0744 561.145 82.8465 561.569 82.8465C561.993 82.8465 562.337 83.0744 562.337 83.3555Z" fill="white"/>
<path d="M528.555 81.2417C528.555 81.5765 528.146 81.8478 527.64 81.8478C527.135 81.8478 526.726 81.5765 526.726 81.2417C526.726 80.9069 527.135 80.6356 527.64 80.6356C528.146 80.6356 528.555 80.9069 528.555 81.2417Z" fill="white"/>
<path d="M780.538 518.072C780.538 518.2 780.382 518.303 780.189 518.303C779.997 518.303 779.84 518.2 779.84 518.072C779.84 517.944 779.997 517.841 780.189 517.841C780.382 517.841 780.538 517.944 780.538 518.072Z" fill="white"/>
<path d="M912.965 172.778C912.965 173.063 912.617 173.294 912.187 173.294C911.757 173.294 911.408 173.063 911.408 172.778C911.408 172.493 911.757 172.263 912.187 172.263C912.617 172.263 912.965 172.493 912.965 172.778Z" fill="white"/>
<path d="M612.149 247.905C612.149 248.131 611.873 248.314 611.532 248.314C611.192 248.314 610.916 248.131 610.916 247.905C610.916 247.68 611.192 247.497 611.532 247.497C611.873 247.497 612.149 247.68 612.149 247.905Z" fill="white"/>
<path d="M631.05 205.193C631.05 205.351 630.857 205.479 630.618 205.479C630.38 205.479 630.187 205.351 630.187 205.193C630.187 205.035 630.38 204.907 630.618 204.907C630.857 204.907 631.05 205.035 631.05 205.193Z" fill="white"/>
</g>
</svg>
