<svg width="790" height="246" viewBox="0 0 790 246" fill="none" xmlns="http://www.w3.org/2000/svg">
<g filter="url(#filter0_d_3099_27204)">
<path d="M206.732 221.923L206.535 221.267L206.524 221.27L206.732 221.923ZM386.861 238.586L386.9 239.27L386.861 238.586ZM45.5009 218.401L45.1618 218.996L45.5009 218.401ZM781.475 0.165767C781.188 -0.0805808 780.755 -0.0475712 780.509 0.239496L776.495 4.91752C776.248 5.20459 776.281 5.637 776.568 5.88335C776.855 6.1297 777.288 6.09669 777.534 5.80962L781.103 1.65138L785.261 5.21979C785.548 5.46614 785.98 5.43313 786.227 5.14606C786.473 4.85899 786.44 4.42658 786.153 4.18023L781.475 0.165767ZM715.653 231.634L715.532 230.96L715.653 231.634ZM546.841 211.897L546.878 211.213L546.841 211.897ZM5.52833 143.686C4.88642 143.447 4.8864 143.447 4.88638 143.447C4.88637 143.447 4.88635 143.447 4.88633 143.447C4.8863 143.447 4.88627 143.447 4.88623 143.447C4.88616 143.447 4.88608 143.448 4.88598 143.448C4.88578 143.448 4.88554 143.449 4.88525 143.45C4.88467 143.451 4.8839 143.453 4.88293 143.456C4.88101 143.461 4.87833 143.469 4.87493 143.478C4.86814 143.497 4.85845 143.524 4.84611 143.559C4.82144 143.63 4.78618 143.733 4.74226 143.868C4.65444 144.137 4.532 144.532 4.39049 145.043L5.0506 145.226L5.71071 145.408C5.84642 144.918 5.96284 144.543 6.04458 144.293C6.08544 144.167 6.11763 144.073 6.13922 144.011C6.15001 143.981 6.15815 143.958 6.1634 143.943C6.16603 143.936 6.16793 143.931 6.16908 143.928C6.16965 143.926 6.17004 143.925 6.17023 143.924C6.17033 143.924 6.17038 143.924 6.17038 143.924C6.17038 143.924 6.17037 143.924 6.17035 143.924C6.17033 143.924 6.17032 143.924 6.1703 143.924C6.17029 143.924 6.17027 143.924 6.17027 143.924C6.17025 143.924 6.17024 143.924 5.52833 143.686ZM3.51495 154.94L2.83117 154.901C2.77025 155.949 2.73664 157.055 2.73984 158.215L3.42477 158.213L4.1097 158.211C4.10658 157.08 4.13935 156.002 4.19873 154.98L3.51495 154.94ZM4.33179 167.995L3.65811 168.118C3.85298 169.18 4.08345 170.264 4.35372 171.367L5.01898 171.204L5.68423 171.041C5.42048 169.964 5.1956 168.907 5.00547 167.871L4.33179 167.995ZM8.17395 180.516L7.5462 180.79C7.97909 181.782 8.4476 182.782 8.95415 183.789L9.56607 183.482L10.178 183.174C9.68268 182.189 9.22473 181.211 8.80171 180.242L8.17395 180.516ZM14.641 191.881L14.0828 192.278C14.7102 193.16 15.3701 194.044 16.064 194.929L16.603 194.507L17.1421 194.084C16.4613 193.216 15.8142 192.349 15.1992 191.484L14.641 191.881ZM23.1556 201.833L22.6742 202.32C23.443 203.079 24.2399 203.838 25.0658 204.595L25.5285 204.09L25.9912 203.585C25.1779 202.839 24.3935 202.093 23.6371 201.345L23.1556 201.833ZM33.1114 210.344L32.7021 210.893C33.5777 211.545 34.4778 212.196 35.403 212.843L35.7956 212.281L36.1881 211.72C35.274 211.081 34.3851 210.439 33.5207 209.794L33.1114 210.344ZM44.0532 217.564L43.7067 218.155C44.1863 218.436 44.6713 218.717 45.1618 218.996L45.5009 218.401L45.8401 217.806C45.3545 217.529 44.8743 217.252 44.3996 216.973L44.0532 217.564ZM45.5009 218.401L45.1618 218.996C45.6634 219.282 46.1675 219.563 46.6739 219.841L47.0027 219.24L47.3315 218.639C46.8319 218.366 46.3348 218.088 45.8401 217.806L45.5009 218.401ZM56.2906 223.736L56.0221 224.366C57.0826 224.818 58.1507 225.254 59.226 225.674L59.4754 225.036L59.7247 224.398C58.662 223.983 57.6066 223.552 56.5591 223.106L56.2906 223.736ZM69.2404 228.38L69.0452 229.037C70.1487 229.365 71.2576 229.679 72.3713 229.98L72.5497 229.318L72.7281 228.657C71.6255 228.36 70.5278 228.049 69.4356 227.724L69.2404 228.38ZM82.6071 231.647L82.4757 232.319C83.6055 232.54 84.7383 232.748 85.8737 232.945L85.9906 232.27L86.1075 231.595C84.9816 231.4 83.8584 231.193 82.7385 230.974L82.6071 231.647ZM96.2109 233.723L96.1343 234.403C97.2792 234.532 98.425 234.65 99.5711 234.758L99.6353 234.076L99.6994 233.394C98.5615 233.287 97.424 233.17 96.2876 233.042L96.2109 233.723ZM109.932 234.778L109.902 235.463C111.056 235.513 112.207 235.554 113.357 235.585L113.376 234.901L113.395 234.216C112.252 234.184 111.108 234.144 109.962 234.094L109.932 234.778ZM123.692 234.958L123.703 235.643C124.86 235.625 126.014 235.599 127.163 235.565L127.143 234.88L127.123 234.196C125.98 234.229 124.832 234.255 123.682 234.274L123.692 234.958ZM137.449 234.378L137.495 235.061C138.651 234.983 139.8 234.898 140.943 234.807L140.888 234.125L140.834 233.442C139.697 233.532 138.553 233.617 137.402 233.695L137.449 234.378ZM151.167 233.127L151.244 233.808C152.393 233.677 153.531 233.541 154.658 233.4L154.573 232.72L154.488 232.041C153.366 232.181 152.232 232.317 151.089 232.447L151.167 233.127ZM164.811 231.277L164.917 231.953C166.068 231.773 167.202 231.589 168.32 231.402L168.207 230.727L168.094 230.051C166.981 230.237 165.851 230.42 164.704 230.6L164.811 231.277ZM178.367 228.873L178.499 229.545C179.643 229.318 180.76 229.091 181.849 228.865L181.71 228.194L181.57 227.524C180.486 227.749 179.373 227.975 178.234 228.201L178.367 228.873ZM191.828 225.931L191.988 226.597C193.166 226.314 194.284 226.039 195.338 225.774L195.172 225.11L195.005 224.446C193.955 224.71 192.841 224.984 191.669 225.265L191.828 225.931ZM205.146 222.404L205.34 223.061C205.862 222.906 206.261 222.785 206.529 222.703C206.664 222.661 206.766 222.63 206.834 222.608C206.869 222.598 206.895 222.59 206.912 222.584C206.921 222.581 206.927 222.579 206.932 222.578C206.934 222.577 206.936 222.576 206.937 222.576C206.938 222.576 206.938 222.576 206.939 222.576C206.939 222.576 206.939 222.576 206.939 222.576C206.939 222.576 206.939 222.576 206.939 222.575C206.939 222.575 206.939 222.575 206.939 222.575C206.939 222.575 206.939 222.575 206.732 221.923C206.524 221.27 206.524 221.27 206.524 221.27H206.524C206.524 221.27 206.524 221.27 206.524 221.27C206.524 221.27 206.524 221.27 206.524 221.27C206.524 221.27 206.524 221.27 206.523 221.27C206.522 221.271 206.521 221.271 206.519 221.272C206.515 221.273 206.509 221.275 206.5 221.277C206.484 221.283 206.459 221.29 206.426 221.301C206.359 221.322 206.259 221.353 206.127 221.393C205.863 221.475 205.468 221.594 204.951 221.747L205.146 222.404ZM206.732 221.923L206.929 222.579C207.514 222.403 208.094 222.232 208.669 222.064L208.477 221.406L208.286 220.749C207.707 220.917 207.123 221.09 206.535 221.267L206.732 221.923ZM218.732 218.715L218.886 219.382C220.055 219.112 221.203 218.86 222.33 218.625L222.191 217.955L222.052 217.284C220.914 217.521 219.756 217.775 218.577 218.048L218.732 218.715ZM232.62 216.205L232.705 216.884C233.898 216.736 235.067 216.609 236.213 216.504L236.151 215.822L236.088 215.14C234.927 215.247 233.743 215.375 232.536 215.525L232.62 216.205ZM246.73 215.428L246.716 216.113C247.909 216.137 249.08 216.187 250.231 216.258L250.273 215.575L250.316 214.891C249.147 214.818 247.957 214.768 246.744 214.743L246.73 215.428ZM260.774 216.901L260.646 217.574C261.803 217.794 262.947 218.035 264.081 218.295L264.235 217.628L264.388 216.96C263.238 216.696 262.077 216.451 260.901 216.228L260.774 216.901ZM274.442 220.485L274.232 221.137C275.343 221.496 276.456 221.867 277.574 222.249L277.795 221.601L278.017 220.953C276.893 220.569 275.773 220.195 274.652 219.834L274.442 220.485ZM287.788 225.156L287.556 225.8C288.65 226.194 289.757 226.592 290.881 226.991L291.11 226.346L291.34 225.701C290.219 225.302 289.114 224.905 288.021 224.511L287.788 225.156ZM301.162 229.749L300.955 230.402C302.06 230.753 303.185 231.1 304.331 231.444L304.528 230.788L304.724 230.131C303.586 229.79 302.468 229.445 301.369 229.096L301.162 229.749ZM314.76 233.556L314.6 234.222C315.737 234.495 316.896 234.763 318.077 235.023L318.225 234.355L318.372 233.686C317.199 233.427 316.049 233.161 314.921 232.89L314.76 233.556ZM328.642 236.343L328.532 237.02C329.672 237.204 330.832 237.382 332.013 237.552L332.111 236.874L332.208 236.196C331.035 236.027 329.883 235.851 328.751 235.667L328.642 236.343ZM342.68 238.121L342.617 238.803C343.762 238.909 344.926 239.009 346.108 239.101L346.161 238.418L346.214 237.735C345.039 237.644 343.882 237.545 342.743 237.439L342.68 238.121ZM356.76 239.011L356.736 239.696C357.905 239.737 359.091 239.771 360.293 239.798L360.309 239.113L360.324 238.429C359.127 238.402 357.947 238.368 356.784 238.327L356.76 239.011ZM370.886 239.16L370.894 239.845C372.064 239.83 373.249 239.808 374.449 239.78L374.433 239.095L374.416 238.411C373.221 238.439 372.042 238.46 370.877 238.475L370.886 239.16ZM385.046 238.687L385.082 239.371C385.684 239.339 386.291 239.305 386.9 239.27L386.861 238.586L386.821 237.903C386.214 237.938 385.61 237.971 385.01 238.003L385.046 238.687ZM386.861 238.586L386.9 239.27C387.433 239.24 387.992 239.197 388.575 239.143L388.512 238.461L388.448 237.779C387.879 237.832 387.336 237.873 386.821 237.903L386.861 238.586ZM398.591 236.946L398.717 237.62C399.788 237.419 400.897 237.203 402.04 236.973L401.905 236.302L401.77 235.63C400.632 235.859 399.529 236.074 398.465 236.273L398.591 236.946ZM411.837 234.172L411.987 234.84C413.076 234.596 414.186 234.344 415.315 234.086L415.162 233.418L415.01 232.75C413.882 233.008 412.774 233.26 411.687 233.504L411.837 234.172ZM425.056 231.115L425.213 231.782C426.296 231.526 427.393 231.268 428.501 231.006L428.343 230.339L428.186 229.673C427.078 229.934 425.982 230.193 424.899 230.448L425.056 231.115ZM438.235 228.002L438.392 228.669C439.485 228.412 440.586 228.153 441.694 227.894L441.538 227.227L441.382 226.56C440.273 226.82 439.171 227.078 438.078 227.336L438.235 228.002ZM451.449 224.931L451.602 225.598C452.694 225.349 453.793 225.099 454.895 224.85L454.744 224.182L454.593 223.514C453.489 223.763 452.39 224.013 451.296 224.263L451.449 224.931ZM464.672 221.985L464.817 222.654C465.919 222.416 467.023 222.179 468.13 221.944L467.988 221.274L467.846 220.604C466.737 220.839 465.631 221.076 464.527 221.315L464.672 221.985ZM477.944 219.226L478.077 219.897C479.184 219.678 480.292 219.46 481.4 219.246L481.27 218.574L481.14 217.901C480.029 218.116 478.919 218.334 477.81 218.554L477.944 219.226ZM491.265 216.729L491.384 217.404C492.498 217.209 493.611 217.018 494.722 216.831L494.608 216.155L494.495 215.48C493.38 215.667 492.264 215.859 491.147 216.054L491.265 216.729ZM504.649 214.584L504.746 215.262C505.867 215.1 506.985 214.944 508.098 214.794L508.007 214.115L507.915 213.437C506.798 213.587 505.676 213.744 504.551 213.906L504.649 214.584ZM518.105 212.911L518.174 213.592C519.3 213.477 520.418 213.369 521.531 213.269L521.469 212.587L521.408 211.905C520.29 212.005 519.165 212.114 518.035 212.229L518.105 212.911ZM531.603 211.892L531.634 212.577C532.774 212.525 533.905 212.484 535.024 212.454L535.006 211.77L534.987 211.085C533.859 211.115 532.721 211.156 531.572 211.208L531.603 211.892ZM545.17 211.818L545.142 212.503C545.7 212.525 546.254 212.551 546.805 212.581L546.841 211.897L546.878 211.213C546.322 211.183 545.761 211.157 545.197 211.134L545.17 211.818ZM546.841 211.897L546.805 212.581C547.382 212.612 547.964 212.645 548.55 212.682L548.592 211.998L548.634 211.314C548.045 211.278 547.459 211.244 546.878 211.213L546.841 211.897ZM559.206 212.87L559.138 213.552C560.305 213.669 561.484 213.793 562.673 213.924L562.748 213.243L562.823 212.562C561.629 212.431 560.446 212.306 559.274 212.189L559.206 212.87ZM573.322 214.54L573.231 215.219C574.392 215.374 575.56 215.535 576.735 215.699L576.83 215.021L576.925 214.342C575.747 214.178 574.576 214.017 573.413 213.861L573.322 214.54ZM587.366 216.579L587.261 217.256C588.427 217.436 589.597 217.62 590.772 217.806L590.879 217.13L590.986 216.453C589.81 216.267 588.638 216.083 587.471 215.902L587.366 216.579ZM601.39 218.847L601.277 219.522C602.441 219.717 603.607 219.913 604.774 220.111L604.888 219.436L605.003 218.76C603.834 218.562 602.668 218.366 601.503 218.171L601.39 218.847ZM615.388 221.237L615.271 221.912C616.437 222.113 617.603 222.316 618.768 222.518L618.886 221.843L619.003 221.168C617.837 220.966 616.671 220.764 615.505 220.562L615.388 221.237ZM629.381 223.665L629.264 224.34C630.432 224.542 631.599 224.743 632.763 224.943L632.879 224.268L632.995 223.593C631.831 223.393 630.665 223.192 629.498 222.99L629.381 223.665ZM643.376 226.049L643.263 226.724C644.438 226.92 645.609 227.113 646.775 227.305L646.886 226.629L646.997 225.953C645.832 225.762 644.662 225.568 643.488 225.373L643.376 226.049ZM657.406 228.299L657.303 228.976C658.477 229.156 659.644 229.331 660.804 229.503L660.904 228.825L661.004 228.148C659.846 227.976 658.681 227.801 657.51 227.622L657.406 228.299ZM671.455 230.293L671.367 230.972C672.558 231.126 673.74 231.273 674.909 231.415L674.992 230.735L675.074 230.055C673.908 229.914 672.73 229.767 671.542 229.613L671.455 230.293ZM685.582 231.855L685.522 232.537C686.722 232.643 687.906 232.74 689.073 232.827L689.124 232.144L689.175 231.461C688.015 231.375 686.837 231.278 685.643 231.172L685.582 231.855ZM699.756 232.651L699.745 233.336C700.964 233.355 702.157 233.359 703.321 233.345L703.313 232.66L703.305 231.975C702.154 231.989 700.974 231.985 699.767 231.966L699.756 232.651ZM713.933 231.914L714.032 232.592C714.626 232.505 715.207 232.41 715.775 232.308L715.653 231.634L715.532 230.96C714.979 231.059 714.413 231.152 713.834 231.236L713.933 231.914ZM715.653 231.634L715.775 232.308C716.345 232.205 716.911 232.092 717.472 231.97L717.326 231.301L717.18 230.631C716.635 230.75 716.086 230.86 715.532 230.96L715.653 231.634ZM726.866 228.117L727.152 228.739C728.184 228.266 729.198 227.756 730.194 227.211L729.865 226.61L729.537 226.01C728.569 226.539 727.584 227.034 726.581 227.494L726.866 228.117ZM738.16 220.934L738.599 221.46C739.466 220.737 740.316 219.985 741.15 219.204L740.682 218.704L740.214 218.204C739.399 218.968 738.568 219.702 737.722 220.408L738.16 220.934ZM747.493 211.258L748.03 211.683C748.719 210.813 749.394 209.921 750.055 209.008L749.501 208.606L748.946 208.204C748.295 209.102 747.632 209.978 746.956 210.833L747.493 211.258ZM754.952 200.125L755.547 200.465C756.108 199.484 756.658 198.485 757.198 197.471L756.593 197.149L755.988 196.828C755.455 197.83 754.912 198.816 754.358 199.785L754.952 200.125ZM760.952 188.077L761.58 188.35C762.023 187.331 762.457 186.3 762.883 185.257L762.248 184.999L761.614 184.74C761.193 185.773 760.762 186.794 760.324 187.804L760.952 188.077ZM765.773 175.547L766.421 175.768C766.784 174.701 767.14 173.626 767.488 172.541L766.836 172.332L766.184 172.123C765.838 173.199 765.485 174.267 765.124 175.326L765.773 175.547ZM769.691 162.659L770.352 162.838C770.644 161.762 770.929 160.679 771.208 159.591L770.545 159.421L769.881 159.251C769.604 160.333 769.32 161.41 769.03 162.48L769.691 162.659ZM772.864 149.603L773.534 149.749C773.771 148.655 774.003 147.558 774.229 146.457L773.558 146.319L772.888 146.181C772.662 147.277 772.431 148.37 772.195 149.458L772.864 149.603ZM775.436 136.406L776.111 136.523C776.303 135.417 776.491 134.308 776.673 133.197L775.997 133.086L775.322 132.975C775.14 134.082 774.953 135.186 774.761 136.288L775.436 136.406ZM777.503 123.113L778.181 123.207C778.335 122.094 778.484 120.981 778.629 119.867L777.95 119.779L777.27 119.691C777.126 120.801 776.977 121.911 776.824 123.02L777.503 123.113ZM779.137 109.765L779.818 109.838C779.938 108.718 780.054 107.599 780.167 106.482L779.485 106.413L778.804 106.345C778.692 107.459 778.576 108.575 778.456 109.692L779.137 109.765ZM780.395 96.3648L781.078 96.42C781.168 95.2993 781.255 94.1811 781.339 93.066L780.656 93.015L779.973 92.9639C779.89 94.0762 779.803 95.1916 779.712 96.3096L780.395 96.3648ZM781.32 82.9465L782.003 82.9857C782.068 81.8698 782.128 80.7583 782.185 79.652L781.501 79.6165L780.818 79.581C780.76 80.6849 780.7 81.7939 780.636 82.9073L781.32 82.9465ZM781.944 69.5395L782.628 69.5642C782.669 68.4226 782.707 67.2883 782.742 66.1618L782.057 66.1407L781.373 66.1195C781.338 67.2436 781.3 68.3756 781.259 69.5148L781.944 69.5395ZM782.295 56.0496L782.98 56.0607C782.999 54.9373 783.014 53.8244 783.027 52.7227L782.342 52.7148L781.657 52.7068C781.644 53.8064 781.629 54.9172 781.611 56.0384L782.295 56.0496ZM782.389 42.6641L783.074 42.6625C783.071 41.4992 783.066 40.353 783.058 39.2247L782.373 39.2294L781.688 39.2342C781.696 40.3603 781.701 41.5045 781.704 42.6656L782.389 42.6641ZM782.235 29.1568L782.919 29.1427C782.896 27.994 782.87 26.8727 782.842 25.78L782.158 25.7973L781.473 25.8146C781.5 26.9051 781.526 28.0244 781.55 29.1709L782.235 29.1568ZM781.832 15.7327L782.516 15.7055C782.468 14.5009 782.42 13.3588 782.371 12.2829L781.687 12.3138L781.003 12.3447C781.051 13.4182 781.1 14.5578 781.147 15.7599L781.832 15.7327ZM781.136 2.22213L781.819 2.17677C781.786 1.67182 781.759 1.28651 781.741 1.02718C781.731 0.897516 781.724 0.799342 781.719 0.733451C781.717 0.700505 781.715 0.67563 781.714 0.658924C781.713 0.650571 781.713 0.64426 781.712 0.640004C781.712 0.637876 781.712 0.636262 781.712 0.635163C781.712 0.634613 781.712 0.634192 781.712 0.633901C781.712 0.633755 781.712 0.633641 781.712 0.63356C781.712 0.633519 781.712 0.633487 781.712 0.633462C781.712 0.63345 781.712 0.633437 781.712 0.633431C781.712 0.633421 781.712 0.633413 781.029 0.685547C780.346 0.737681 780.346 0.737677 780.346 0.737675C780.346 0.737677 780.346 0.737676 780.346 0.73768C780.346 0.737688 780.346 0.737704 780.346 0.737728C780.346 0.737775 780.346 0.737855 780.346 0.737968C780.346 0.738192 780.346 0.738546 780.346 0.739028C780.346 0.739992 780.346 0.741471 780.346 0.743464C780.347 0.74745 780.347 0.753489 780.348 0.76157C780.349 0.777732 780.351 0.80206 780.353 0.834455C780.358 0.899245 780.365 0.996303 780.374 1.12484C780.393 1.38191 780.419 1.7649 780.453 2.26748L781.136 2.22213Z" fill="#242D24"/>
</g>
<defs>
<filter id="filter0_d_3099_27204" x="1.35899e-05" y="0" width="789.132" height="245.323" filterUnits="userSpaceOnUse" color-interpolation-filters="sRGB">
<feFlood flood-opacity="0" result="BackgroundImageFix"/>
<feColorMatrix in="SourceAlpha" type="matrix" values="0 0 0 0 0 0 0 0 0 0 0 0 0 0 0 0 0 0 127 0" result="hardAlpha"/>
<feOffset dy="2.73973"/>
<feGaussianBlur stdDeviation="1.36987"/>
<feComposite in2="hardAlpha" operator="out"/>
<feColorMatrix type="matrix" values="0 0 0 0 0 0 0 0 0 0 0 0 0 0 0 0 0 0 0.25 0"/>
<feBlend mode="normal" in2="BackgroundImageFix" result="effect1_dropShadow_3099_27204"/>
<feBlend mode="normal" in="SourceGraphic" in2="effect1_dropShadow_3099_27204" result="shape"/>
</filter>
</defs>
</svg>
