<svg width="795" height="148" viewBox="0 0 795 148" fill="none" xmlns="http://www.w3.org/2000/svg">
<g filter="url(#filter0_d_3099_27203)">
<path d="M791.007 81.0029L791.691 80.9834L791.73 82.3528L791.046 82.3722L791.026 81.6875L791.007 81.0029ZM652.526 65.6881L652.841 65.0799L652.526 65.6881ZM242.526 65.6873L242.628 66.3646L242.526 65.6873ZM485.026 0.688081L485.022 1.373L485.026 0.688081ZM24.6803 141.891C24.5682 142.253 24.1844 142.455 23.8231 142.342L17.9357 140.515C17.5745 140.403 17.3724 140.019 17.4846 139.658C17.5967 139.297 17.9805 139.095 18.3417 139.207L23.575 140.831L25.1991 135.598C25.3112 135.237 25.695 135.035 26.0563 135.147C26.4175 135.259 26.6195 135.643 26.5074 136.004L24.6803 141.891ZM791.026 81.6875C791.046 82.3722 791.046 82.3722 791.046 82.3722C791.046 82.3722 791.046 82.3722 791.045 82.3722C791.045 82.3722 791.045 82.3722 791.045 82.3722C791.045 82.3722 791.045 82.3722 791.045 82.3722C791.045 82.3722 791.044 82.3722 791.044 82.3722C791.042 82.3723 791.041 82.3723 791.038 82.3724C791.034 82.3725 791.027 82.3727 791.017 82.373C790.999 82.3735 790.972 82.3742 790.935 82.3752C790.862 82.3771 790.754 82.3799 790.611 82.3834C790.326 82.3904 789.902 82.4002 789.35 82.4115L789.336 81.7267L789.322 81.042C789.872 81.0307 790.294 81.0209 790.578 81.0139C790.72 81.0105 790.827 81.0077 790.899 81.0058C790.935 81.0048 790.962 81.0041 790.98 81.0036C790.989 81.0034 790.996 81.0032 791 81.0031C791.002 81.003 791.004 81.0029 791.005 81.0029C791.006 81.0029 791.006 81.0029 791.006 81.0029C791.006 81.0029 791.007 81.0029 791.007 81.0029C791.007 81.0029 791.007 81.0029 791.007 81.0029C791.007 81.0029 791.007 81.0029 791.007 81.0029C791.007 81.0029 791.007 81.0029 791.026 81.6875ZM778.776 81.8428L778.778 82.5277C777.668 82.5312 776.496 82.5325 775.264 82.5308L775.265 81.8458L775.266 81.1609C776.495 81.1626 777.666 81.1614 778.773 81.1579L778.776 81.8428ZM764.74 81.7615L764.73 82.4463C763.579 82.4296 762.401 82.4099 761.198 82.3871L761.211 81.7023L761.224 81.0175C762.425 81.0403 763.601 81.0599 764.75 81.0766L764.74 81.7615ZM750.692 81.4318L750.669 82.1163C749.511 82.0786 748.339 82.0377 747.154 81.9935L747.18 81.309L747.205 80.6246C748.388 80.6687 749.558 80.7095 750.714 80.7472L750.692 81.4318ZM736.663 80.8374L736.627 81.5214C735.465 81.4602 734.296 81.3956 733.12 81.3273L733.16 80.6435L733.2 79.9597C734.373 80.0279 735.539 80.0924 736.699 80.1534L736.663 80.8374ZM722.648 79.9397L722.596 80.6227C721.43 80.5338 720.262 80.4409 719.092 80.3439L719.149 79.6613L719.205 78.9788C720.372 79.0755 721.537 79.1681 722.7 79.2568L722.648 79.9397ZM708.663 78.6768L708.591 79.358C707.423 79.2347 706.257 79.1068 705.095 78.9741L705.173 78.2936L705.25 77.6131C706.409 77.7453 707.57 77.8728 708.734 77.9957L708.663 78.6768ZM694.732 76.9511L694.635 77.629C693.465 77.4603 692.303 77.2859 691.148 77.1057L691.254 76.429L691.36 75.7523C692.508 75.9316 693.666 76.1052 694.83 76.2732L694.732 76.9511ZM680.88 74.5956L680.746 75.2673C679.583 75.0351 678.434 74.7956 677.3 74.5486L677.446 73.8794L677.591 73.2101C678.717 73.4554 679.859 73.6933 681.014 73.924L680.88 74.5956ZM667.228 71.3135L667.038 71.9714C665.892 71.6391 664.771 71.2964 663.676 70.943L663.887 70.2912L664.097 69.6394C665.178 69.9883 666.286 70.327 667.419 70.6557L667.228 71.3135ZM654.066 66.4546L653.771 67.0724C653.239 66.818 652.719 66.5593 652.211 66.2963L652.526 65.6881L652.841 65.0799C653.336 65.336 653.843 65.5883 654.362 65.8367L654.066 66.4546ZM652.526 65.6881L652.211 66.2963C651.702 66.0325 651.189 65.764 650.673 65.4909L650.993 64.8855L651.314 64.2801C651.826 64.5514 652.336 64.818 652.841 65.0799L652.526 65.6881ZM641.795 59.7826L641.454 60.3764C640.457 59.803 639.449 59.2181 638.43 58.6228L638.775 58.0314L639.12 57.44C640.137 58.0339 641.143 58.6172 642.137 59.1889L641.795 59.7826ZM629.727 52.6726L629.376 53.2606C628.386 52.6695 627.387 52.0721 626.379 51.4693L626.731 50.8815L627.083 50.2937C628.09 50.8966 629.089 51.4938 630.078 52.0846L629.727 52.6726ZM617.705 45.5023L617.356 46.0917C616.36 45.5021 615.356 44.9096 614.344 44.3149L614.691 43.7244L615.038 43.1338C616.051 43.7293 617.057 44.3226 618.054 44.9129L617.705 45.5023ZM605.597 38.4628L605.259 39.0582C604.248 38.4836 603.229 37.9086 602.204 37.3339L602.539 36.7364L602.874 36.1389C603.902 36.715 604.922 37.2913 605.936 37.8673L605.597 38.4628ZM593.326 31.6999L593.004 32.3046C591.982 31.7603 590.952 31.2179 589.916 30.6776L590.233 30.0703L590.549 29.463C591.589 30.005 592.622 30.5493 593.648 31.0953L593.326 31.6999ZM580.851 25.3406L580.551 25.9566C579.507 25.4486 578.455 24.9441 577.398 24.4436L577.691 23.8245L577.984 23.2054C579.046 23.708 580.101 24.2146 581.15 24.7246L580.851 25.3406ZM568.127 19.4897L567.855 20.1183C566.789 19.6571 565.717 19.2009 564.639 18.7501L564.903 18.1182L565.168 17.4863C566.251 17.9393 567.328 18.3977 568.399 18.8611L568.127 19.4897ZM555.134 14.2521L554.894 14.8939C553.808 14.4889 552.716 14.0902 551.619 13.6984L551.849 13.0534L552.08 12.4083C553.183 12.8023 554.281 13.2031 555.373 13.6103L555.134 14.2521ZM541.881 9.73633L541.679 10.3909C540.57 10.0492 539.455 9.71522 538.336 9.38921L538.527 8.73159L538.719 8.07397C539.845 8.40198 540.966 8.73803 542.082 9.08175L541.881 9.73633ZM528.377 6.03908L528.218 6.70524C527.087 6.43496 525.952 6.17348 524.811 5.92114L524.959 5.25238L525.107 4.58362C526.255 4.83766 527.398 5.10088 528.536 5.37292L528.377 6.03908ZM514.655 3.25228L514.542 3.92788C513.396 3.73682 512.246 3.55551 511.091 3.38428L511.191 2.70675L511.291 2.02921C512.455 2.20167 513.614 2.38427 514.768 2.57668L514.655 3.25228ZM500.768 1.45506L500.705 2.13713C499.55 2.03106 498.391 1.93551 497.227 1.85079L497.277 1.16767L497.326 0.484539C498.499 0.569892 499.667 0.666148 500.831 0.772999L500.768 1.45506ZM486.786 0.706112L486.775 1.39097C486.192 1.38215 485.608 1.37615 485.022 1.373L485.026 0.688081L485.03 0.00315744C485.62 0.00633192 486.208 0.0123772 486.796 0.021257L486.786 0.706112ZM485.026 0.688081L485.022 1.373C484.448 1.36991 483.872 1.36967 483.295 1.37223L483.292 0.687305L483.289 0.0023784C483.871 -0.000204682 484.451 4.23193e-05 485.03 0.00315744L485.026 0.688081ZM472.799 1.02402L472.839 1.70779C471.676 1.77549 470.508 1.85308 469.336 1.94028L469.285 1.25724L469.234 0.574189C470.414 0.486455 471.589 0.408378 472.759 0.340243L472.799 1.02402ZM458.841 2.26532L458.921 2.94556C457.771 3.0809 456.616 3.22433 455.458 3.37563L455.37 2.69647L455.281 2.01731C456.445 1.86527 457.605 1.72111 458.761 1.58508L458.841 2.26532ZM444.969 4.24458L445.081 4.92024C443.938 5.11029 442.792 5.30707 441.643 5.51036L441.524 4.83591L441.404 4.16146C442.558 3.95735 443.708 3.75976 444.857 3.56891L444.969 4.24458ZM431.208 6.8175L431.347 7.48827C430.206 7.72398 429.063 7.96533 427.918 8.2121L427.774 7.54256L427.63 6.87301C428.778 6.62542 429.925 6.38325 431.07 6.14673L431.208 6.8175ZM417.53 9.88134L417.69 10.5473C416.561 10.8188 415.43 11.095 414.299 11.3756L414.134 10.7108L413.97 10.046C415.104 9.76467 416.237 9.48773 417.37 9.21539L417.53 9.88134ZM403.962 13.3433L404.14 14.0048C403.013 14.3079 401.887 14.6148 400.76 14.9252L400.578 14.2649L400.396 13.6046C401.525 13.2934 402.655 12.9858 403.784 12.6819L403.962 13.3433ZM390.475 17.14L390.668 17.7973C389.549 18.1254 388.431 18.4564 387.313 18.7901L387.117 18.1339L386.921 17.4776C388.041 17.1432 389.161 16.8115 390.282 16.4828L390.475 17.14ZM377.071 21.2112L377.276 21.8647C376.162 22.2138 375.051 22.565 373.94 22.9183L373.733 22.2656L373.525 21.6129C374.637 21.2591 375.751 20.9073 376.866 20.5576L377.071 21.2112ZM363.736 25.5085L363.951 26.1589C362.841 26.5256 361.734 26.8937 360.628 27.263L360.411 26.6134L360.194 25.9637C361.301 25.5939 362.41 25.2253 363.521 24.8582L363.736 25.5085ZM350.463 29.9873L350.686 30.635C349.58 31.0153 348.477 31.3962 347.377 31.7776L347.153 31.1305L346.929 30.4834C348.029 30.1016 349.133 29.7203 350.241 29.3396L350.463 29.9873ZM337.232 34.6086L337.461 35.2542C336.359 35.6445 335.26 36.0345 334.166 36.4242L333.936 35.7789L333.707 35.1337C334.802 34.7438 335.901 34.3535 337.004 33.9629L337.232 34.6086ZM324.06 39.3201L324.292 39.9644C323.182 40.3648 322.077 40.7639 320.977 41.1616L320.745 40.5175L320.512 39.8734C321.611 39.4756 322.717 39.0763 323.827 38.6758L324.06 39.3201ZM310.869 44.0985L311.103 44.7423C310.002 45.1418 308.908 45.539 307.821 45.9335L307.588 45.2897L307.354 44.6459C308.441 44.2513 309.535 43.8542 310.635 43.4547L310.869 44.0985ZM297.69 48.8711L297.923 49.5155C296.822 49.9118 295.731 50.3042 294.648 50.6925L294.417 50.0477L294.185 49.4029C295.268 49.015 296.359 48.6228 297.458 48.2267L297.69 48.8711ZM284.492 53.5671L284.718 54.2136C283.608 54.6021 282.509 54.9845 281.422 55.3603L281.198 54.713L280.974 54.0656C282.06 53.6904 283.157 53.3086 284.266 52.9206L284.492 53.5671ZM271.224 58.0782L271.437 58.7291C270.32 59.095 269.219 59.4513 268.134 59.7974L267.926 59.1449L267.717 58.4924C268.799 58.1474 269.897 57.7922 271.011 57.4273L271.224 58.0782ZM257.84 62.1921L258.026 62.8514C256.867 63.178 255.733 63.4876 254.626 63.7794L254.451 63.1171L254.277 62.4547C255.376 62.1651 256.502 61.8575 257.654 61.5328L257.84 62.1921ZM244.199 65.4159L244.316 66.0908C243.742 66.1904 243.179 66.2818 242.628 66.3646L242.526 65.6873L242.424 65.01C242.965 64.9287 243.517 64.839 244.082 64.7411L244.199 65.4159ZM242.526 65.6873L242.628 66.3646C242.043 66.4525 241.459 66.5376 240.874 66.6198L240.779 65.9415L240.684 65.2633C241.263 65.1817 241.844 65.0972 242.424 65.01L242.526 65.6873ZM230.299 67.1216L230.357 67.804C229.185 67.9038 228.014 67.9929 226.844 68.0716L226.798 67.3882L226.753 66.7048C227.914 66.6267 229.077 66.5382 230.241 66.4391L230.299 67.1216ZM216.27 67.8234L216.281 68.5082C215.101 68.527 213.923 68.536 212.747 68.5354L212.747 67.8505L212.747 67.1655C213.916 67.1661 215.087 67.1572 216.259 67.1385L216.27 67.8234ZM202.208 67.5942L202.176 68.2784C201.001 68.2225 199.83 68.1579 198.661 68.0848L198.704 67.4012L198.747 66.7176C199.909 66.7903 201.073 66.8545 202.241 66.9101L202.208 67.5942ZM188.192 66.516L188.12 67.1971C186.95 67.0739 185.784 66.9429 184.62 66.8046L184.701 66.1244L184.782 65.4443C185.939 65.5819 187.1 65.7122 188.264 65.8348L188.192 66.516ZM174.262 64.6801L174.156 65.3568C172.99 65.1734 171.828 64.9834 170.67 64.7872L170.784 64.1119L170.899 63.4366C172.051 63.6319 173.208 63.821 174.368 64.0035L174.262 64.6801ZM160.422 62.1778L160.286 62.849C159.132 62.6143 157.983 62.3744 156.838 62.1295L156.981 61.4597L157.125 60.7899C158.265 61.0339 159.41 61.2729 160.559 61.5066L160.422 62.1778ZM146.698 59.1063L146.536 59.7718C145.396 59.4947 144.262 59.2136 143.133 58.9291L143.3 58.2649L143.468 57.6007C144.593 57.8844 145.724 58.1646 146.86 58.4408L146.698 59.1063ZM133.091 55.565L132.909 56.2252C131.775 55.9121 130.647 55.5965 129.526 55.279L129.713 54.62L129.899 53.961C131.018 54.2777 132.143 54.5925 133.273 54.9048L133.091 55.565ZM119.587 51.6572L119.39 52.313C118.26 51.9727 117.138 51.6318 116.023 51.2907L116.224 50.6358L116.424 49.9808C117.537 50.3214 118.657 50.6617 119.785 51.0013L119.587 51.6572ZM106.157 47.4978L105.95 48.1508C104.823 47.7944 103.706 47.4395 102.597 47.0869L102.805 46.4342L103.013 45.7815C104.12 46.134 105.237 46.4886 106.363 46.8447L106.157 47.4978ZM92.7528 43.2298L92.5453 43.8825C91.4219 43.5255 90.3101 43.1732 89.21 42.8264L89.416 42.1732L89.6219 41.52C90.7231 41.8672 91.8361 42.2198 92.9602 42.577L92.7528 43.2298ZM79.3202 39.0637L79.1246 39.7201C77.9887 39.3816 76.8686 39.0528 75.7646 38.7348L75.9542 38.0766L76.1438 37.4184C77.2523 37.7378 78.3764 38.0677 79.5158 38.4073L79.3202 39.0637ZM65.7673 35.3627L65.6079 36.0289C64.451 35.7521 63.3176 35.4943 62.2084 35.257L62.3516 34.5872L62.4949 33.9175C63.616 34.1573 64.7601 34.4175 65.9266 34.6966L65.7673 35.3627ZM51.9228 32.9367L51.8635 33.6191C50.6694 33.5153 49.5184 33.4531 48.4116 33.4354L48.4225 32.7505L48.4335 32.0657C49.5762 32.084 50.7596 32.1481 51.9821 32.2544L51.9228 32.9367ZM38.0882 34.4183L38.3568 35.0484C37.8377 35.2696 37.34 35.5147 36.8635 35.7844L36.5261 35.1883L36.1887 34.5922C36.7116 34.2963 37.2555 34.0287 37.8197 33.7882L38.0882 34.4183ZM36.5261 35.1883L36.8635 35.7844C36.3602 36.0692 35.8574 36.3542 35.3553 36.6396L35.0168 36.0442L34.6783 35.4487C35.1815 35.1627 35.6851 34.8773 36.1887 34.5922L36.5261 35.1883ZM26.0782 41.3764L26.4488 41.9524C25.4778 42.577 24.5217 43.2137 23.584 43.866L23.1928 43.3037L22.8017 42.7414C23.7546 42.0785 24.7247 41.4326 25.7077 40.8003L26.0782 41.3764ZM15.1426 49.8791L15.6233 50.367C14.8109 51.1676 14.0298 51.9955 13.2842 52.8544L12.767 52.4054L12.2498 51.9564C13.0201 51.0689 13.8257 50.2152 14.6619 49.3912L15.1426 49.8791ZM7.08459 61.0785L7.7049 61.3689C7.23236 62.3781 6.80072 63.4252 6.41333 64.5133L5.76807 64.2836L5.12286 64.0538C5.52496 62.9243 5.97327 61.8368 6.46429 60.788L7.08459 61.0785ZM3.60815 74.4387L4.29041 74.4989C4.19299 75.6022 4.1319 76.7398 4.10919 77.9135L3.42444 77.9002L2.73962 77.887C2.76288 76.6829 2.82556 75.5139 2.92584 74.3784L3.60815 74.4387ZM4.11322 88.2554L4.79132 88.1585C4.94952 89.2658 5.13593 90.3994 5.3515 91.5603L4.67804 91.6853L4.00464 91.8104C3.78571 90.6315 3.59625 89.4791 3.43518 88.3523L4.11322 88.2554ZM7.10437 101.789L7.76221 101.599C8.07837 102.69 8.4165 103.801 8.77722 104.934L8.12457 105.142L7.47198 105.35C7.10773 104.206 6.76605 103.083 6.44647 101.98L7.10437 101.789ZM11.6061 114.927L12.2441 114.677C12.6531 115.725 13.0789 116.788 13.522 117.867L12.8884 118.127L12.2549 118.388C11.8088 117.301 11.3799 116.231 10.968 115.176L11.6061 114.927ZM17.079 127.693L17.7004 127.405C18.1726 128.423 18.6586 129.453 19.1586 130.497L18.5409 130.793L17.9232 131.089C17.4208 130.04 16.9324 129.004 16.4577 127.981L17.079 127.693ZM23.2025 140.114L23.8102 139.798C24.0811 140.319 24.355 140.843 24.6323 141.369L24.0261 141.688L23.42 142.007C23.1418 141.479 22.8667 140.953 22.5948 140.43L23.2025 140.114Z" fill="#242D24"/>
</g>
<defs>
<filter id="filter0_d_3099_27203" x="-0.000230551" y="0" width="794.47" height="147.853" filterUnits="userSpaceOnUse" color-interpolation-filters="sRGB">
<feFlood flood-opacity="0" result="BackgroundImageFix"/>
<feColorMatrix in="SourceAlpha" type="matrix" values="0 0 0 0 0 0 0 0 0 0 0 0 0 0 0 0 0 0 127 0" result="hardAlpha"/>
<feOffset dy="2.73973"/>
<feGaussianBlur stdDeviation="1.36987"/>
<feComposite in2="hardAlpha" operator="out"/>
<feColorMatrix type="matrix" values="0 0 0 0 0 0 0 0 0 0 0 0 0 0 0 0 0 0 0.25 0"/>
<feBlend mode="normal" in2="BackgroundImageFix" result="effect1_dropShadow_3099_27203"/>
<feBlend mode="normal" in="SourceGraphic" in2="effect1_dropShadow_3099_27203" result="shape"/>
</filter>
</defs>
</svg>
